<svg width="62" height="48" viewBox="0 0 62 48" fill="none" xmlns="http://www.w3.org/2000/svg">
<g clip-path="url(#clip0_418_4)">
<path d="M50.9351 11.7666C50.9351 10.7121 51.7878 9.85935 52.8423 9.85935C53.8968 9.85935 54.7495 10.7121 54.7495 11.7666V36.2384C54.7495 37.293 53.8968 38.1457 52.8423 38.1457C51.7878 38.1457 50.9351 37.293 50.9351 36.2384V11.7666ZM0 16.0555C0 15.0009 0.852702 14.1482 1.90723 14.1482C2.96175 14.1482 3.81445 15.0009 3.81445 16.0555V31.9445C3.81445 32.9991 2.96175 33.8518 1.90723 33.8518C0.852702 33.8518 0 32.9991 0 31.9445V16.0555ZM7.27572 11.7666C7.27572 10.7121 8.12842 9.85935 9.18294 9.85935C10.2375 9.85935 11.0902 10.7121 11.0902 11.7666V36.2384C11.0902 37.293 10.2375 38.1457 9.18294 38.1457C8.12842 38.1457 7.27572 37.293 7.27572 36.2384V11.7666ZM14.5817 7.01356C14.5817 5.96405 15.4243 5.11637 16.4587 5.11637C17.498 5.11637 18.3356 5.96405 18.3356 7.01356V40.9915C18.3356 42.041 17.493 42.8887 16.4587 42.8887C15.4193 42.8887 14.5817 42.041 14.5817 40.9915V7.01356ZM21.8271 1.90728C21.8271 0.852728 22.6799 0 23.7344 0C24.7889 0 25.6416 0.852728 25.6416 1.90728V46.0927C25.6416 47.1473 24.7889 48 23.7344 48C22.6799 48 21.8271 47.1473 21.8271 46.0927V1.90728ZM43.6593 16.0555C43.6593 15.0009 44.512 14.1482 45.5666 14.1482C46.6211 14.1482 47.4738 15.0009 47.4738 16.0555V31.9445C47.4738 32.9991 46.6211 33.8518 45.5666 33.8518C44.512 33.8518 43.6593 32.9991 43.6593 31.9445V16.0555ZM36.3836 11.7666C36.3836 10.7121 37.2363 9.85935 38.2909 9.85935C39.3454 9.85935 40.1981 10.7121 40.1981 11.7666V36.2384C40.1981 37.293 39.3454 38.1457 38.2909 38.1457C37.2363 38.1457 36.3836 37.293 36.3836 36.2384V11.7666ZM29.1331 7.01356C29.1331 5.96405 29.9757 5.11637 31.0101 5.11637C32.0495 5.11637 32.887 5.96405 32.887 7.01356V40.9915C32.887 42.041 32.0444 42.8887 31.0101 42.8887C29.9707 42.8887 29.1331 42.041 29.1331 40.9915V7.01356ZM58.2411 7.01356C58.2411 5.96405 59.0837 5.11637 60.118 5.11637C61.1574 5.11637 61.995 5.96405 61.995 7.01356V40.9915C61.995 42.041 61.1523 42.8887 60.118 42.8887C59.0786 42.8887 58.2411 42.041 58.2411 40.9915V7.01356Z" fill="white"/>
</g>
<defs>
<clipPath id="clip0_418_4">
<rect width="62" height="48" fill="white"/>
</clipPath>
</defs>
</svg>
