<svg width="605" height="426" viewBox="0 0 605 426" fill="none" xmlns="http://www.w3.org/2000/svg">
<path d="M80.935 11.195C80.425 11.195 79.915 11.105 79.45 10.955V8.765C79.705 8.945 80.05 9.065 80.44 9.065C81.235 9.065 81.61 8.585 81.61 7.775V0.499999H83.95V8.105C83.95 10.145 82.855 11.195 80.935 11.195ZM88.3819 11.165C86.7169 11.165 85.7719 10.085 85.7719 8.195V3.2H88.0069V7.7C88.0069 8.765 88.3969 9.29 89.2369 9.29H89.2969C90.2569 9.29 90.8869 8.54 90.8869 7.385V3.2H93.1219V11H91.3519C91.2619 10.715 91.1569 10.22 91.1269 9.86C90.4819 10.655 89.5369 11.165 88.4419 11.165H88.3819ZM95.0182 11V0.2H97.2532V11H95.0182ZM100.529 14.06C100.034 14.06 99.4491 13.97 98.9991 13.76V11.87C99.3141 12.08 99.7191 12.215 100.139 12.215C100.679 12.215 101.159 11.915 101.459 11.315L98.2641 3.2H100.589L102.569 8.93H102.674L104.159 3.2H106.409L103.784 11.42C103.244 13.07 102.194 14.06 100.529 14.06ZM110.679 11V9.365C112.329 8.36 115.689 5.78 115.689 3.635C115.689 2.825 115.164 2.315 114.384 2.315C113.589 2.315 112.944 2.87 112.764 4.115L110.574 3.71C110.859 1.61 112.359 0.32 114.384 0.32C116.349 0.32 117.954 1.505 117.954 3.53C117.954 5.9 115.809 7.745 114.039 9.035H118.179V11H110.679ZM121.313 0.499999H123.368V11H121.163V3.98C120.563 4.4 119.738 4.64 118.823 4.64V2.87C120.323 2.81 121.313 1.91 121.313 0.499999ZM86.776 48L79.144 22.8H85.084L90.34 42.276H90.664L95.884 22.8H101.86L94.192 48H86.776ZM107.579 48.396C103.943 48.396 101.351 46.2 101.351 42.888V42.456C101.351 38.46 104.735 36.408 111.827 36.408H113.231V35.868C113.231 34.14 112.151 33.024 110.063 33.024H109.883C108.155 33.024 106.211 33.6 104.267 34.86L102.251 31.188C104.483 29.748 107.399 28.884 110.279 28.884H110.603C115.355 28.884 118.271 31.548 118.271 36.048V43.716C118.271 45.228 118.523 46.596 118.919 48H113.915C113.699 47.424 113.519 46.668 113.411 45.876C112.043 47.46 109.883 48.396 107.579 48.396ZM108.947 44.328C110.531 44.328 112.115 43.608 113.231 42.348V39.54H112.151C108.263 39.54 106.427 40.404 106.427 42.132V42.312C106.427 43.5 107.435 44.328 108.947 44.328ZM122.752 48V29.28H127C127.252 30 127.54 31.224 127.576 32.052C129.16 30.108 131.464 28.884 134.128 28.884H134.272C138.304 28.884 140.608 31.476 140.608 36.012V48H135.244V37.164C135.244 34.644 134.308 33.384 132.22 33.384H132.04C129.7 33.384 128.116 35.184 128.116 37.92V48H122.752ZM152.823 48.36C147.387 48.36 143.643 44.472 143.643 39.108V38.1C143.643 32.808 147.531 28.92 152.679 28.92H153.003C156.279 28.92 159.015 30.396 160.851 33.06L157.071 35.76C155.991 33.852 154.803 33.024 153.183 33.024H152.967C150.627 33.024 149.187 34.932 149.187 38.316V38.964C149.187 42.204 150.735 44.148 153.111 44.148H153.435C154.947 44.148 156.207 43.248 157.251 41.412L160.995 44.292C159.123 46.956 156.495 48.36 153.146 48.36H152.823ZM171.955 48.396C166.339 48.396 162.451 44.616 162.451 39.18V38.1C162.451 32.664 166.339 28.884 171.955 28.884H172.315C177.931 28.884 181.819 32.664 181.819 38.1V39.18C181.819 44.616 177.931 48.396 172.315 48.396H171.955ZM171.955 44.4H172.315C174.691 44.4 176.275 42.24 176.275 38.964V38.136C176.275 34.932 174.691 32.88 172.315 32.88H171.955C169.579 32.88 167.995 34.932 167.995 38.136V38.964C167.995 42.24 169.579 44.4 171.955 44.4ZM191.13 48.396C187.134 48.396 184.866 45.804 184.866 41.268V29.28H190.23V40.08C190.23 42.636 191.166 43.896 193.182 43.896H193.326C195.63 43.896 197.142 42.096 197.142 39.324V29.28H202.506V48H198.258C198.042 47.316 197.79 46.128 197.718 45.264C196.17 47.172 193.902 48.396 191.274 48.396H191.13ZM211.233 48L205.005 29.28H210.621L214.401 43.32H214.761L218.541 29.28H224.157L217.929 48H211.233ZM234.883 48.396C229.231 48.396 225.451 44.652 225.451 39.036V38.352C225.451 32.808 229.267 28.92 234.667 28.92H235.135C240.175 28.92 243.703 32.484 243.703 37.452V40.116H230.671C230.923 42.6 232.687 44.112 235.243 44.112H235.567C237.655 44.112 239.347 43.104 240.463 41.88L243.127 45.228C241.327 47.064 238.339 48.396 235.459 48.396H234.883ZM230.815 36.84H238.627V36.732C238.555 34.284 237.115 32.844 235.063 32.844H234.703C232.615 32.844 231.211 34.32 230.815 36.84ZM246.959 48V29.28H251.171C251.423 30 251.675 31.08 251.711 31.872C253.079 30.252 255.059 29.28 257.363 29.28H257.903V34.32C257.507 34.212 256.895 34.14 256.355 34.14C253.763 34.14 252.323 35.58 252.323 38.136V48H246.959ZM258.975 52.824L261.567 42.384H266.787L263.043 52.824H258.975ZM279.769 48V22.8H289.309C294.313 22.8 297.805 25.212 297.805 28.956V29.388C297.805 31.584 296.833 33.312 294.637 34.572C297.409 35.76 298.957 37.992 298.957 40.692V41.16C298.957 45.336 295.573 48 290.317 48H279.769ZM285.205 33.24H289.093C291.073 33.24 292.441 32.16 292.441 30.504V30.108C292.441 28.524 291.181 27.516 289.165 27.516H285.205V33.24ZM285.205 43.248H289.993C292.045 43.248 293.485 42.204 293.485 40.512V40.08C293.485 38.316 292.009 37.2 289.885 37.2H285.205V43.248ZM302.541 48V29.28H306.753C307.005 30 307.257 31.08 307.293 31.872C308.661 30.252 310.641 29.28 312.945 29.28H313.485V34.32C313.089 34.212 312.477 34.14 311.937 34.14C309.345 34.14 307.905 35.58 307.905 38.136V48H302.541ZM319.093 26.976C317.257 26.976 316.033 25.896 316.033 24.276C316.033 22.656 317.257 21.504 319.093 21.504C320.965 21.504 322.261 22.656 322.261 24.276C322.261 25.896 320.965 26.976 319.093 26.976ZM316.393 48V29.28H321.757V48H316.393ZM332.787 48.252C329.367 48.252 327.099 46.344 327.099 42.132V33.42H324.651V29.856C325.299 29.64 326.271 29.388 327.099 29.316V24.96L332.427 24.312V29.28H337.323V33.42H332.391V41.124C332.391 43.068 333.111 43.752 334.479 43.752C335.307 43.752 336.711 43.5 337.431 43.356V47.424C336.207 47.964 334.155 48.252 332.787 48.252ZM343.386 26.976C341.55 26.976 340.326 25.896 340.326 24.276C340.326 22.656 341.55 21.504 343.386 21.504C345.258 21.504 346.554 22.656 346.554 24.276C346.554 25.896 345.258 26.976 343.386 26.976ZM340.686 48V29.28H346.05V48H340.686ZM357.836 48.432C354.452 48.432 351.464 47.496 349.052 45.804L351.572 41.952C353.048 43.284 355.568 44.184 357.62 44.184C359.24 44.184 360.068 43.608 360.068 42.528C360.068 40.908 358.16 41.088 354.308 39.72C352.004 39 349.736 37.812 349.736 34.644C349.736 31.08 352.472 28.848 356.792 28.848C359.492 28.848 362.192 29.748 364.28 31.26L361.76 34.896C360.356 33.78 358.412 33.06 356.612 33.06C355.244 33.06 354.524 33.564 354.524 34.536C354.524 35.94 356.468 36.228 358.736 36.768C361.688 37.524 365.108 38.604 365.108 42.564C365.108 46.128 362.228 48.432 357.836 48.432ZM368.143 48V22.08H373.507V31.404C375.091 29.82 377.251 28.884 379.627 28.884C383.659 28.884 385.999 31.512 385.999 36.012V48H380.635V37.164C380.635 34.608 379.627 33.384 377.467 33.384C374.983 33.384 373.507 35.004 373.507 37.704V48H368.143ZM410.77 48.432C403.534 48.432 398.602 43.248 398.602 35.76V35.076C398.602 27.66 403.642 22.368 410.662 22.368H410.914C415.018 22.368 418.654 24.312 420.778 27.732L416.638 30.864C415.378 28.668 413.542 27.3 411.058 27.3H410.77C407.026 27.3 404.434 30.36 404.434 35.076V35.76C404.434 40.476 406.99 43.464 410.77 43.464H411.202C413.614 43.464 415.522 42.132 416.782 39.972L420.85 43.068C418.726 46.524 415.198 48.432 410.986 48.432H410.77ZM431.76 48.396C426.144 48.396 422.256 44.616 422.256 39.18V38.1C422.256 32.664 426.144 28.884 431.76 28.884H432.12C437.736 28.884 441.624 32.664 441.624 38.1V39.18C441.624 44.616 437.736 48.396 432.12 48.396H431.76ZM431.76 44.4H432.12C434.496 44.4 436.08 42.24 436.08 38.964V38.136C436.08 34.932 434.496 32.88 432.12 32.88H431.76C429.384 32.88 427.8 34.932 427.8 38.136V38.964C427.8 42.24 429.384 44.4 431.76 44.4ZM444.995 48V22.08H450.359V48H444.995ZM460.849 48.396C456.853 48.396 454.585 45.804 454.585 41.268V29.28H459.949V40.08C459.949 42.636 460.885 43.896 462.901 43.896H463.045C465.349 43.896 466.861 42.096 466.861 39.324V29.28H472.225V48H467.977C467.761 47.316 467.509 46.128 467.437 45.264C465.889 47.172 463.621 48.396 460.993 48.396H460.849ZM476.776 48V29.28H481.024C481.276 29.928 481.492 31.008 481.564 31.8C483.004 30.036 485.092 28.884 487.432 28.884H487.576C490.06 28.884 491.824 30 492.76 32.016C494.2 30.072 496.396 28.848 498.844 28.848H498.988C502.732 28.848 504.82 31.404 504.82 35.904V48H499.456V36.84C499.456 34.356 498.664 33.348 496.9 33.348H496.792C494.812 33.348 493.48 34.824 493.48 37.56V48H488.116V36.876C488.116 34.392 487.324 33.384 485.524 33.384H485.416C483.436 33.384 482.14 34.86 482.14 37.596V48H476.776ZM519.669 48.396C517.257 48.396 515.205 47.496 513.765 45.912C513.657 46.668 513.513 47.46 513.297 48H509.049V22.08H514.413V30.792C515.781 29.568 517.581 28.884 519.669 28.884H519.957C524.889 28.884 528.201 32.628 528.201 38.1V39.18C528.201 44.652 524.889 48.396 519.957 48.396H519.669ZM518.337 44.4H518.697C521.073 44.4 522.657 42.24 522.657 38.964V38.136C522.657 34.932 521.073 32.88 518.697 32.88H518.337C515.961 32.88 514.377 34.932 514.377 38.136V38.964C514.377 42.24 515.961 44.4 518.337 44.4ZM534.249 26.976C532.413 26.976 531.189 25.896 531.189 24.276C531.189 22.656 532.413 21.504 534.249 21.504C536.121 21.504 537.417 22.656 537.417 24.276C537.417 25.896 536.121 26.976 534.249 26.976ZM531.549 48V29.28H536.913V48H531.549ZM546.575 48.396C542.939 48.396 540.347 46.2 540.347 42.888V42.456C540.347 38.46 543.731 36.408 550.823 36.408H552.227V35.868C552.227 34.14 551.147 33.024 549.059 33.024H548.879C547.151 33.024 545.207 33.6 543.263 34.86L541.247 31.188C543.479 29.748 546.395 28.884 549.275 28.884H549.599C554.351 28.884 557.267 31.548 557.267 36.048V43.716C557.267 45.228 557.519 46.596 557.915 48H552.911C552.695 47.424 552.515 46.668 552.407 45.876C551.039 47.46 548.879 48.396 546.575 48.396ZM547.943 44.328C549.527 44.328 551.111 43.608 552.227 42.348V39.54H551.147C547.259 39.54 545.423 40.404 545.423 42.132V42.312C545.423 43.5 546.431 44.328 547.943 44.328Z" fill="black"/>
<path d="M80.935 110.195C80.425 110.195 79.915 110.105 79.45 109.955V107.765C79.705 107.945 80.05 108.065 80.44 108.065C81.235 108.065 81.61 107.585 81.61 106.775V99.5H83.95V107.105C83.95 109.145 82.855 110.195 80.935 110.195ZM88.3819 110.165C86.7169 110.165 85.7719 109.085 85.7719 107.195V102.2H88.0069V106.7C88.0069 107.765 88.3969 108.29 89.2369 108.29H89.2969C90.2569 108.29 90.8869 107.54 90.8869 106.385V102.2H93.1219V110H91.3519C91.2619 109.715 91.1569 109.22 91.1269 108.86C90.4819 109.655 89.5369 110.165 88.4419 110.165H88.3819ZM95.0182 110V99.2H97.2532V110H95.0182ZM100.529 113.06C100.034 113.06 99.4491 112.97 98.9991 112.76V110.87C99.3141 111.08 99.7191 111.215 100.139 111.215C100.679 111.215 101.159 110.915 101.459 110.315L98.2641 102.2H100.589L102.569 107.93H102.674L104.159 102.2H106.409L103.784 110.42C103.244 112.07 102.194 113.06 100.529 113.06ZM110.679 110V108.365C112.329 107.36 115.689 104.78 115.689 102.635C115.689 101.825 115.164 101.315 114.384 101.315C113.589 101.315 112.944 101.87 112.764 103.115L110.574 102.71C110.859 100.61 112.359 99.32 114.384 99.32C116.349 99.32 117.954 100.505 117.954 102.53C117.954 104.9 115.809 106.745 114.039 108.035H118.179V110H110.679ZM122.738 110.18C120.953 110.18 119.333 109.25 118.793 107.465L120.788 106.94C121.133 107.705 121.748 108.17 122.723 108.17C123.773 108.17 124.478 107.495 124.478 106.415C124.478 105.425 123.863 104.78 122.858 104.78C122.288 104.78 121.778 104.96 121.403 105.2L120.713 103.97L123.383 101.48H119.303V99.5H126.113V101.135L123.698 103.265H123.803C125.543 103.355 126.758 104.615 126.758 106.475C126.758 108.8 124.913 110.18 122.738 110.18ZM82.096 139.312C81.28 139.312 80.464 139.168 79.72 138.928V135.424C80.128 135.712 80.68 135.904 81.304 135.904C82.576 135.904 83.176 135.136 83.176 133.84V122.2H86.92V134.368C86.92 137.632 85.168 139.312 82.096 139.312ZM93.4591 139.264C91.0351 139.264 89.3071 137.8 89.3071 135.592V135.304C89.3071 132.64 91.5631 131.272 96.2911 131.272H97.2271V130.912C97.2271 129.76 96.5071 129.016 95.1151 129.016H94.9951C93.8431 129.016 92.5471 129.4 91.2511 130.24L89.9071 127.792C91.3951 126.832 93.3391 126.256 95.2591 126.256H95.4751C98.6431 126.256 100.587 128.032 100.587 131.032V136.144C100.587 137.152 100.755 138.064 101.019 139H97.6831C97.5391 138.616 97.4191 138.112 97.3471 137.584C96.4351 138.64 94.9951 139.264 93.4591 139.264ZM94.3711 136.552C95.4271 136.552 96.4831 136.072 97.2271 135.232V133.36H96.5071C93.9151 133.36 92.6911 133.936 92.6911 135.088V135.208C92.6911 136 93.3631 136.552 94.3711 136.552ZM108.398 139.288C106.143 139.288 104.151 138.664 102.543 137.536L104.223 134.968C105.207 135.856 106.887 136.456 108.255 136.456C109.335 136.456 109.887 136.072 109.887 135.352C109.887 134.272 108.615 134.392 106.047 133.48C104.511 133 102.999 132.208 102.999 130.096C102.999 127.72 104.823 126.232 107.703 126.232C109.503 126.232 111.303 126.832 112.695 127.84L111.015 130.264C110.079 129.52 108.783 129.04 107.583 129.04C106.671 129.04 106.191 129.376 106.191 130.024C106.191 130.96 107.487 131.152 108.999 131.512C110.967 132.016 113.247 132.736 113.247 135.376C113.247 137.752 111.327 139.288 108.398 139.288ZM115.246 143.8V126.52H118.078C118.222 126.88 118.342 127.432 118.414 127.912C119.35 126.88 120.718 126.256 122.326 126.256H122.542C125.806 126.256 128.038 128.752 128.038 132.4V133.12C128.038 136.768 125.806 139.264 122.542 139.264H122.326C120.934 139.264 119.734 138.808 118.822 137.992V143.8H115.246ZM121.462 136.6H121.678C123.286 136.6 124.318 135.16 124.318 132.976V132.424C124.318 130.288 123.286 128.92 121.678 128.92H121.462C119.854 128.92 118.822 130.312 118.822 132.424V132.976C118.822 135.16 119.878 136.6 121.462 136.6ZM135.766 139.264C131.998 139.264 129.478 136.768 129.478 133.024V132.568C129.478 128.872 132.022 126.28 135.622 126.28H135.934C139.294 126.28 141.646 128.656 141.646 131.968V133.744H132.958C133.126 135.4 134.302 136.408 136.006 136.408H136.222C137.614 136.408 138.742 135.736 139.486 134.92L141.262 137.152C140.062 138.376 138.07 139.264 136.15 139.264H135.766ZM133.054 131.56H138.262V131.488C138.214 129.856 137.254 128.896 135.886 128.896H135.646C134.254 128.896 133.318 129.88 133.054 131.56ZM143.817 139V126.52H146.625C146.793 127 146.961 127.72 146.985 128.248C147.897 127.168 149.217 126.52 150.753 126.52H151.113V129.88C150.849 129.808 150.441 129.76 150.081 129.76C148.353 129.76 147.393 130.72 147.393 132.424V139H143.817ZM151.827 142.216L153.555 135.256H157.035L154.539 142.216H151.827ZM163.769 139L169.362 122.2H174.162L179.706 139H175.698L174.618 135.496H168.834L167.778 139H163.769ZM169.626 132.496H173.85L171.882 126.088H171.618L169.626 132.496ZM181.299 139V122.2H187.659C190.995 122.2 193.323 123.808 193.323 126.304V126.592C193.323 128.056 192.675 129.208 191.211 130.048C193.059 130.84 194.091 132.328 194.091 134.128V134.44C194.091 137.224 191.835 139 188.331 139H181.299ZM184.923 129.16H187.515C188.835 129.16 189.747 128.44 189.747 127.336V127.072C189.747 126.016 188.907 125.344 187.563 125.344H184.923V129.16ZM184.923 135.832H188.115C189.483 135.832 190.443 135.136 190.443 134.008V133.72C190.443 132.544 189.459 131.8 188.043 131.8H184.923V135.832Z" fill="black"/>
<path d="M80.935 199.195C80.425 199.195 79.915 199.105 79.45 198.955V196.765C79.705 196.945 80.05 197.065 80.44 197.065C81.235 197.065 81.61 196.585 81.61 195.775V188.5H83.95V196.105C83.95 198.145 82.855 199.195 80.935 199.195ZM88.3819 199.165C86.7169 199.165 85.7719 198.085 85.7719 196.195V191.2H88.0069V195.7C88.0069 196.765 88.3969 197.29 89.2369 197.29H89.2969C90.2569 197.29 90.8869 196.54 90.8869 195.385V191.2H93.1219V199H91.3519C91.2619 198.715 91.1569 198.22 91.1269 197.86C90.4819 198.655 89.5369 199.165 88.4419 199.165H88.3819ZM95.0182 199V188.2H97.2532V199H95.0182ZM100.529 202.06C100.034 202.06 99.4491 201.97 98.9991 201.76V199.87C99.3141 200.08 99.7191 200.215 100.139 200.215C100.679 200.215 101.159 199.915 101.459 199.315L98.2641 191.2H100.589L102.569 196.93H102.674L104.159 191.2H106.409L103.784 199.42C103.244 201.07 102.194 202.06 100.529 202.06ZM110.679 199V197.365C112.329 196.36 115.689 193.78 115.689 191.635C115.689 190.825 115.164 190.315 114.384 190.315C113.589 190.315 112.944 190.87 112.764 192.115L110.574 191.71C110.859 189.61 112.359 188.32 114.384 188.32C116.349 188.32 117.954 189.505 117.954 191.53C117.954 193.9 115.809 195.745 114.039 197.035H118.179V199H110.679ZM123.578 199V197.185H118.673V195.535L122.723 188.5H125.693V195.34H126.908V197.185H125.693V199H123.578ZM120.803 195.34H123.578V190.66H123.398L120.803 195.145V195.34ZM82.888 228L79.36 211.2H83.176L85.36 223.68H85.552L88.528 211.2H91.576L94.576 223.68H94.768L96.976 211.2H100.792L97.216 228H92.608L90.136 217.536H89.992L87.496 228H82.888ZM104.484 213.984C103.26 213.984 102.444 213.264 102.444 212.184C102.444 211.104 103.26 210.336 104.484 210.336C105.732 210.336 106.596 211.104 106.596 212.184C106.596 213.264 105.732 213.984 104.484 213.984ZM102.684 228V215.52H106.26V228H102.684ZM109.293 228V215.52H112.125C112.293 216 112.485 216.816 112.509 217.368C113.565 216.072 115.101 215.256 116.877 215.256H116.973C119.661 215.256 121.197 216.984 121.197 220.008V228H117.621V220.776C117.621 219.096 116.997 218.256 115.605 218.256H115.485C113.925 218.256 112.869 219.456 112.869 221.28V228H109.293ZM124.012 228V215.52H126.844C127.012 216 127.204 216.816 127.228 217.368C128.284 216.072 129.82 215.256 131.596 215.256H131.692C134.38 215.256 135.916 216.984 135.916 220.008V228H132.34V220.776C132.34 219.096 131.716 218.256 130.324 218.256H130.204C128.644 218.256 127.588 219.456 127.588 221.28V228H124.012ZM140.531 213.984C139.307 213.984 138.491 213.264 138.491 212.184C138.491 211.104 139.307 210.336 140.531 210.336C141.779 210.336 142.643 211.104 142.643 212.184C142.643 213.264 141.779 213.984 140.531 213.984ZM138.731 228V215.52H142.307V228H138.731ZM145.316 232.8V215.52H148.148C148.292 215.88 148.412 216.432 148.484 216.912C149.42 215.88 150.788 215.256 152.396 215.256H152.612C155.876 215.256 158.108 217.752 158.108 221.4V222.12C158.108 225.768 155.876 228.264 152.612 228.264H152.396C151.004 228.264 149.804 227.808 148.892 226.992V232.8H145.316ZM151.532 225.6H151.748C153.356 225.6 154.388 224.16 154.388 221.976V221.424C154.388 219.288 153.356 217.92 151.748 217.92H151.532C149.924 217.92 148.892 219.312 148.892 221.424V221.976C148.892 224.16 149.948 225.6 151.532 225.6ZM165.836 228.264C162.068 228.264 159.548 225.768 159.548 222.024V221.568C159.548 217.872 162.092 215.28 165.692 215.28H166.004C169.364 215.28 171.716 217.656 171.716 220.968V222.744H163.028C163.196 224.4 164.372 225.408 166.076 225.408H166.292C167.684 225.408 168.812 224.736 169.556 223.92L171.332 226.152C170.132 227.376 168.14 228.264 166.22 228.264H165.836ZM163.124 220.56H168.332V220.488C168.284 218.856 167.324 217.896 165.956 217.896H165.716C164.324 217.896 163.388 218.88 163.124 220.56ZM173.071 219.984V219.72C173.071 217.152 175.399 215.256 178.519 215.256H179.239C179.911 215.256 180.535 215.352 181.111 215.496C181.351 214.752 181.639 214.152 181.927 213.768H184.999L183.463 216.816C184.255 217.584 184.711 218.592 184.711 219.72V219.984C184.711 222.576 182.359 224.448 179.239 224.448H179.023C178.783 224.448 178.567 224.448 178.351 224.424V225.624C178.687 225.6 178.975 225.6 179.335 225.6H179.647C182.887 225.6 185.191 227.04 185.191 229.2V229.416C185.191 231.576 182.815 233.064 179.599 233.064H178.567C175.327 233.064 172.975 231.576 172.975 229.416V229.104C172.975 227.664 174.007 226.512 175.639 225.912V223.824C174.055 223.08 173.071 221.664 173.071 219.984ZM176.551 219.792V220.152C176.551 221.328 177.535 222.096 178.711 222.096H179.071C180.223 222.096 181.231 221.304 181.231 220.152V219.792C181.231 218.616 180.223 217.824 179.071 217.824H178.711C177.535 217.824 176.551 218.592 176.551 219.792ZM176.527 229.008V229.248C176.527 229.968 177.367 230.544 178.759 230.544H179.479C180.895 230.544 181.735 229.944 181.735 229.248V229.008C181.735 228.288 180.871 227.712 179.479 227.712H178.759C177.367 227.712 176.527 228.264 176.527 229.008ZM186.257 231.216L187.985 224.256H191.465L188.969 231.216H186.257ZM200.119 228V211.2H205.399L208.711 220.968H208.879L212.191 211.2H217.447V228H213.799V215.664H213.607L210.175 225.768H207.415L203.959 215.664H203.767V228H200.119ZM220.979 228V211.2H227.339C230.675 211.2 233.003 212.808 233.003 215.304V215.592C233.003 217.056 232.355 218.208 230.891 219.048C232.739 219.84 233.771 221.328 233.771 223.128V223.44C233.771 226.224 231.515 228 228.011 228H220.979ZM224.603 218.16H227.195C228.515 218.16 229.427 217.44 229.427 216.336V216.072C229.427 215.016 228.587 214.344 227.243 214.344H224.603V218.16ZM224.603 224.832H227.795C229.163 224.832 230.123 224.136 230.123 223.008V222.72C230.123 221.544 229.139 220.8 227.723 220.8H224.603V224.832Z" fill="black"/>
<path d="M80.935 292.195C80.425 292.195 79.915 292.105 79.45 291.955V289.765C79.705 289.945 80.05 290.065 80.44 290.065C81.235 290.065 81.61 289.585 81.61 288.775V281.5H83.95V289.105C83.95 291.145 82.855 292.195 80.935 292.195ZM88.3819 292.165C86.7169 292.165 85.7719 291.085 85.7719 289.195V284.2H88.0069V288.7C88.0069 289.765 88.3969 290.29 89.2369 290.29H89.2969C90.2569 290.29 90.8869 289.54 90.8869 288.385V284.2H93.1219V292H91.3519C91.2619 291.715 91.1569 291.22 91.1269 290.86C90.4819 291.655 89.5369 292.165 88.4419 292.165H88.3819ZM95.0182 292V281.2H97.2532V292H95.0182ZM100.529 295.06C100.034 295.06 99.4491 294.97 98.9991 294.76V292.87C99.3141 293.08 99.7191 293.215 100.139 293.215C100.679 293.215 101.159 292.915 101.459 292.315L98.2641 284.2H100.589L102.569 289.93H102.674L104.159 284.2H106.409L103.784 292.42C103.244 294.07 102.194 295.06 100.529 295.06ZM110.679 292V290.365C112.329 289.36 115.689 286.78 115.689 284.635C115.689 283.825 115.164 283.315 114.384 283.315C113.589 283.315 112.944 283.87 112.764 285.115L110.574 284.71C110.859 282.61 112.359 281.32 114.384 281.32C116.349 281.32 117.954 282.505 117.954 284.53C117.954 286.9 115.809 288.745 114.039 290.035H118.179V292H110.679ZM126.953 283.87L124.868 284.35C124.553 283.555 124.013 283.165 123.263 283.165C121.598 283.165 121.148 284.92 121.148 286.27C121.823 285.535 122.828 285.19 123.803 285.19C125.723 285.19 127.253 286.45 127.253 288.52C127.253 290.68 125.588 292.195 123.218 292.195C120.533 292.195 118.943 290.23 118.943 286.84C118.943 283.405 120.563 281.305 123.248 281.305C125.048 281.305 126.428 282.25 126.953 283.87ZM121.253 288.37C121.478 289.54 122.168 290.215 123.203 290.215C124.298 290.215 125.048 289.48 125.048 288.445C125.048 287.47 124.328 286.84 123.323 286.84C122.468 286.84 121.598 287.245 121.253 287.995C121.238 288.115 121.238 288.235 121.253 288.37ZM83.68 321V307.464H79.48V304.2H91.648V307.464H87.448V321H83.68ZM97.2591 321.264C93.5151 321.264 90.9231 318.744 90.9231 315.12V314.4C90.9231 310.776 93.5151 308.256 97.2591 308.256H97.4991C101.243 308.256 103.835 310.776 103.835 314.4V315.12C103.835 318.744 101.243 321.264 97.4991 321.264H97.2591ZM97.2591 318.6H97.4991C99.0831 318.6 100.139 317.16 100.139 314.976V314.424C100.139 312.288 99.0831 310.92 97.4991 310.92H97.2591C95.6751 310.92 94.6191 312.288 94.6191 314.424V314.976C94.6191 317.16 95.6751 318.6 97.2591 318.6ZM106.082 321V308.52H108.89C109.058 309 109.226 309.72 109.25 310.248C110.162 309.168 111.482 308.52 113.018 308.52H113.378V311.88C113.114 311.808 112.706 311.76 112.346 311.76C110.618 311.76 109.658 312.72 109.658 314.424V321H106.082ZM120.861 321.264C117.117 321.264 114.525 318.744 114.525 315.12V314.4C114.525 310.776 117.117 308.256 120.861 308.256H121.101C124.845 308.256 127.437 310.776 127.437 314.4V315.12C127.437 318.744 124.845 321.264 121.101 321.264H120.861ZM120.861 318.6H121.101C122.685 318.6 123.741 317.16 123.741 314.976V314.424C123.741 312.288 122.685 310.92 121.101 310.92H120.861C119.277 310.92 118.221 312.288 118.221 314.424V314.976C118.221 317.16 119.277 318.6 120.861 318.6ZM129.684 321V308.52H132.516C132.684 309 132.876 309.816 132.9 310.368C133.956 309.072 135.492 308.256 137.268 308.256H137.364C140.052 308.256 141.588 309.984 141.588 313.008V321H138.012V313.776C138.012 312.096 137.388 311.256 135.996 311.256H135.876C134.316 311.256 133.26 312.456 133.26 314.28V321H129.684ZM148.582 321.168C146.302 321.168 144.79 319.896 144.79 317.088V311.28H143.158V308.904C143.59 308.76 144.238 308.592 144.79 308.544V305.64L148.342 305.208V308.52H151.606V311.28H148.318V316.416C148.318 317.712 148.798 318.168 149.71 318.168C150.262 318.168 151.198 318 151.678 317.904V320.616C150.862 320.976 149.494 321.168 148.582 321.168ZM159.158 321.264C155.414 321.264 152.822 318.744 152.822 315.12V314.4C152.822 310.776 155.414 308.256 159.158 308.256H159.398C163.142 308.256 165.734 310.776 165.734 314.4V315.12C165.734 318.744 163.142 321.264 159.398 321.264H159.158ZM159.158 318.6H159.398C160.982 318.6 162.038 317.16 162.038 314.976V314.424C162.038 312.288 160.982 310.92 159.398 310.92H159.158C157.574 310.92 156.518 312.288 156.518 314.424V314.976C156.518 317.16 157.574 318.6 159.158 318.6ZM166.077 324.216L167.805 317.256H171.285L168.789 324.216H166.077ZM179.076 312.84V312.36C179.076 307.248 182.34 303.864 187.164 303.864H187.476C192.228 303.864 195.564 307.296 195.564 312.36V312.84C195.564 317.904 192.228 321.336 187.476 321.336H187.164C182.412 321.336 179.076 317.88 179.076 312.84ZM182.964 312.84C182.964 316.056 184.716 318.072 187.188 318.072H187.452C189.948 318.072 191.676 316.056 191.676 312.84V312.36C191.676 309.168 189.948 307.152 187.452 307.152H187.188C184.716 307.152 182.964 309.168 182.964 312.36V312.84ZM198.221 321V304.2H202.589L208.349 315.048H208.469V304.2H212.093V321H208.373L201.989 309.072H201.821V321H198.221Z" fill="black"/>
<path d="M80.935 374.195C80.425 374.195 79.915 374.105 79.45 373.955V371.765C79.705 371.945 80.05 372.065 80.44 372.065C81.235 372.065 81.61 371.585 81.61 370.775V363.5H83.95V371.105C83.95 373.145 82.855 374.195 80.935 374.195ZM88.3819 374.165C86.7169 374.165 85.7719 373.085 85.7719 371.195V366.2H88.0069V370.7C88.0069 371.765 88.3969 372.29 89.2369 372.29H89.2969C90.2569 372.29 90.8869 371.54 90.8869 370.385V366.2H93.1219V374H91.3519C91.2619 373.715 91.1569 373.22 91.1269 372.86C90.4819 373.655 89.5369 374.165 88.4419 374.165H88.3819ZM95.0182 374V363.2H97.2532V374H95.0182ZM100.529 377.06C100.034 377.06 99.4491 376.97 98.9991 376.76V374.87C99.3141 375.08 99.7191 375.215 100.139 375.215C100.679 375.215 101.159 374.915 101.459 374.315L98.2641 366.2H100.589L102.569 371.93H102.674L104.159 366.2H106.409L103.784 374.42C103.244 376.07 102.194 377.06 100.529 377.06ZM110.679 374V372.365C112.329 371.36 115.689 368.78 115.689 366.635C115.689 365.825 115.164 365.315 114.384 365.315C113.589 365.315 112.944 365.87 112.764 367.115L110.574 366.71C110.859 364.61 112.359 363.32 114.384 363.32C116.349 363.32 117.954 364.505 117.954 366.53C117.954 368.9 115.809 370.745 114.039 372.035H118.179V374H110.679ZM122.903 374.18C120.428 374.18 118.853 372.965 118.853 371.075C118.853 369.83 119.558 368.885 120.743 368.39C119.798 367.94 119.273 367.13 119.273 366.08C119.273 364.385 120.668 363.305 122.903 363.305C125.123 363.305 126.518 364.385 126.518 366.08C126.518 367.13 125.993 367.94 125.063 368.39C126.248 368.885 126.953 369.83 126.953 371.075C126.953 372.965 125.378 374.18 122.903 374.18ZM122.903 367.625C123.863 367.625 124.448 367.175 124.448 366.395C124.448 365.615 123.863 365.165 122.903 365.165C121.928 365.165 121.358 365.615 121.358 366.395C121.358 367.175 121.928 367.625 122.903 367.625ZM122.903 372.23C124.103 372.23 124.763 371.69 124.763 370.79C124.763 369.875 124.103 369.335 122.903 369.335C121.718 369.335 121.013 369.875 121.013 370.79C121.013 371.69 121.718 372.23 122.903 372.23ZM81.628 414V388.8H89.548L94.516 403.452H94.768L99.736 388.8H107.62V414H102.148V395.496H101.86L96.712 410.652H92.572L87.388 395.496H87.1V414H81.628ZM120.873 414.396C115.257 414.396 111.369 410.616 111.369 405.18V404.1C111.369 398.664 115.257 394.884 120.873 394.884H121.233C126.849 394.884 130.737 398.664 130.737 404.1V405.18C130.737 410.616 126.849 414.396 121.233 414.396H120.873ZM120.873 410.4H121.233C123.609 410.4 125.193 408.24 125.193 404.964V404.136C125.193 400.932 123.609 398.88 121.233 398.88H120.873C118.497 398.88 116.913 400.932 116.913 404.136V404.964C116.913 408.24 118.497 410.4 120.873 410.4ZM134.108 414V395.28H138.356C138.608 396 138.896 397.224 138.932 398.052C140.516 396.108 142.82 394.884 145.484 394.884H145.628C149.66 394.884 151.964 397.476 151.964 402.012V414H146.6V403.164C146.6 400.644 145.664 399.384 143.576 399.384H143.396C141.056 399.384 139.472 401.184 139.472 403.92V414H134.108ZM162.455 414.252C159.035 414.252 156.767 412.344 156.767 408.132V399.42H154.319V395.856C154.967 395.64 155.939 395.388 156.767 395.316V390.96L162.095 390.312V395.28H166.991V399.42H162.059V407.124C162.059 409.068 162.779 409.752 164.147 409.752C164.975 409.752 166.379 409.5 167.099 409.356V413.424C165.875 413.964 163.823 414.252 162.455 414.252ZM170.143 414V395.28H174.355C174.607 396 174.859 397.08 174.895 397.872C176.263 396.252 178.243 395.28 180.547 395.28H181.087V400.32C180.691 400.212 180.079 400.14 179.539 400.14C176.947 400.14 175.507 401.58 175.507 404.136V414H170.143ZM192.239 414.396C186.587 414.396 182.807 410.652 182.807 405.036V404.352C182.807 398.808 186.623 394.92 192.023 394.92H192.491C197.531 394.92 201.059 398.484 201.059 403.452V406.116H188.027C188.279 408.6 190.043 410.112 192.599 410.112H192.923C195.011 410.112 196.703 409.104 197.819 407.88L200.483 411.228C198.683 413.064 195.695 414.396 192.815 414.396H192.239ZM188.171 402.84H195.983V402.732C195.911 400.284 194.471 398.844 192.419 398.844H192.059C189.971 398.844 188.567 400.32 188.171 402.84ZM209.427 414.396C205.791 414.396 203.199 412.2 203.199 408.888V408.456C203.199 404.46 206.583 402.408 213.675 402.408H215.079V401.868C215.079 400.14 213.999 399.024 211.911 399.024H211.731C210.003 399.024 208.059 399.6 206.115 400.86L204.099 397.188C206.331 395.748 209.247 394.884 212.127 394.884H212.451C217.203 394.884 220.119 397.548 220.119 402.048V409.716C220.119 411.228 220.371 412.596 220.767 414H215.763C215.547 413.424 215.367 412.668 215.259 411.876C213.891 413.46 211.731 414.396 209.427 414.396ZM210.795 410.328C212.379 410.328 213.963 409.608 215.079 408.348V405.54H213.999C210.111 405.54 208.275 406.404 208.275 408.132V408.312C208.275 409.5 209.283 410.328 210.795 410.328ZM224.6 414V388.08H229.964V414H224.6ZM232.678 418.824L235.27 408.384H240.49L236.746 418.824H232.678ZM271.328 415.728V419.688C270.104 420.012 268.7 420.228 267.404 420.228C263.624 420.228 261.644 418.428 261.644 414.792V414.216C255.992 413.136 252.176 408.348 252.176 401.76V401.04C252.176 393.444 257.18 388.296 264.308 388.296H264.776C271.94 388.296 276.944 393.444 276.944 401.04V401.76C276.944 408.672 272.804 413.604 266.648 414.36V414.684C266.72 415.728 267.404 416.124 268.484 416.124C269.276 416.124 270.644 415.908 271.328 415.728ZM258.008 401.76C258.008 406.584 260.636 409.608 264.344 409.608H264.776C268.484 409.608 271.112 406.584 271.112 401.76V401.04C271.112 396.252 268.484 393.228 264.776 393.228H264.344C260.636 393.228 258.008 396.252 258.008 401.04V401.76ZM286.474 414.396C282.478 414.396 280.21 411.804 280.21 407.268V395.28H285.574V406.08C285.574 408.636 286.51 409.896 288.526 409.896H288.67C290.974 409.896 292.486 408.096 292.486 405.324V395.28H297.85V414H293.602C293.386 413.316 293.134 412.128 293.062 411.264C291.514 413.172 289.246 414.396 286.618 414.396H286.474ZM310.645 414.396C304.993 414.396 301.213 410.652 301.213 405.036V404.352C301.213 398.808 305.029 394.92 310.429 394.92H310.897C315.937 394.92 319.465 398.484 319.465 403.452V406.116H306.433C306.685 408.6 308.449 410.112 311.005 410.112H311.329C313.417 410.112 315.109 409.104 316.225 407.88L318.889 411.228C317.089 413.064 314.101 414.396 311.221 414.396H310.645ZM306.577 402.84H314.389V402.732C314.317 400.284 312.877 398.844 310.825 398.844H310.465C308.377 398.844 306.973 400.32 306.577 402.84ZM333.341 414.396C330.929 414.396 328.877 413.496 327.437 411.912C327.329 412.668 327.185 413.46 326.969 414H322.721V388.08H328.085V396.792C329.453 395.568 331.253 394.884 333.341 394.884H333.629C338.561 394.884 341.873 398.628 341.873 404.1V405.18C341.873 410.652 338.561 414.396 333.629 414.396H333.341ZM332.009 410.4H332.369C334.745 410.4 336.329 408.24 336.329 404.964V404.136C336.329 400.932 334.745 398.88 332.369 398.88H332.009C329.633 398.88 328.049 400.932 328.049 404.136V404.964C328.049 408.24 329.633 410.4 332.009 410.4ZM353.465 414.396C347.813 414.396 344.033 410.652 344.033 405.036V404.352C344.033 398.808 347.849 394.92 353.249 394.92H353.717C358.757 394.92 362.285 398.484 362.285 403.452V406.116H349.253C349.505 408.6 351.269 410.112 353.825 410.112H354.149C356.237 410.112 357.929 409.104 359.045 407.88L361.709 411.228C359.909 413.064 356.921 414.396 354.041 414.396H353.465ZM349.397 402.84H357.209V402.732C357.137 400.284 355.697 398.844 353.645 398.844H353.285C351.197 398.844 349.793 400.32 349.397 402.84ZM373.744 414.36C368.308 414.36 364.564 410.472 364.564 405.108V404.1C364.564 398.808 368.452 394.92 373.6 394.92H373.924C377.2 394.92 379.936 396.396 381.772 399.06L377.992 401.76C376.912 399.852 375.724 399.024 374.104 399.024H373.888C371.548 399.024 370.108 400.932 370.108 404.316V404.964C370.108 408.204 371.656 410.148 374.032 410.148H374.356C375.868 410.148 377.128 409.248 378.172 407.412L381.916 410.292C380.044 412.956 377.416 414.36 374.068 414.36H373.744Z" fill="black"/>
<rect x="16" y="14" width="28" height="395" rx="14" fill="#AAAD83"/>
<circle cx="29.5" cy="29.5" r="29.5" fill="#76728B"/>
<circle cx="30" cy="123" r="21" fill="#76728B"/>
<circle cx="29" cy="213" r="21" fill="#76728B"/>
<circle cx="30" cy="305" r="21" fill="#76728B"/>
<circle cx="31.5" cy="396.5" r="29.5" fill="#76728B"/>
</svg>
