<svg width="886" height="118" viewBox="0 0 886 118" fill="none" xmlns="http://www.w3.org/2000/svg">
<path d="M587.2 111.8V98.264H583V95H595.168V98.264H590.968V111.8H587.2ZM600.779 112.064C597.035 112.064 594.443 109.544 594.443 105.92V105.2C594.443 101.576 597.035 99.056 600.779 99.056H601.019C604.763 99.056 607.355 101.576 607.355 105.2V105.92C607.355 109.544 604.763 112.064 601.019 112.064H600.779ZM600.779 109.4H601.019C602.603 109.4 603.659 107.96 603.659 105.776V105.224C603.659 103.088 602.603 101.72 601.019 101.72H600.779C599.195 101.72 598.139 103.088 598.139 105.224V105.776C598.139 107.96 599.195 109.4 600.779 109.4ZM609.602 111.8V99.32H612.41C612.578 99.8 612.746 100.52 612.77 101.048C613.682 99.968 615.002 99.32 616.538 99.32H616.898V102.68C616.634 102.608 616.226 102.56 615.866 102.56C614.138 102.56 613.178 103.52 613.178 105.224V111.8H609.602ZM624.381 112.064C620.637 112.064 618.045 109.544 618.045 105.92V105.2C618.045 101.576 620.637 99.056 624.381 99.056H624.621C628.365 99.056 630.957 101.576 630.957 105.2V105.92C630.957 109.544 628.365 112.064 624.621 112.064H624.381ZM624.381 109.4H624.621C626.205 109.4 627.261 107.96 627.261 105.776V105.224C627.261 103.088 626.205 101.72 624.621 101.72H624.381C622.797 101.72 621.741 103.088 621.741 105.224V105.776C621.741 107.96 622.797 109.4 624.381 109.4ZM633.204 111.8V99.32H636.036C636.204 99.8 636.396 100.616 636.42 101.168C637.476 99.872 639.012 99.056 640.788 99.056H640.884C643.572 99.056 645.108 100.784 645.108 103.808V111.8H641.532V104.576C641.532 102.896 640.908 102.056 639.516 102.056H639.396C637.836 102.056 636.78 103.256 636.78 105.08V111.8H633.204ZM652.102 111.968C649.822 111.968 648.31 110.696 648.31 107.888V102.08H646.678V99.704C647.11 99.56 647.758 99.392 648.31 99.344V96.44L651.862 96.008V99.32H655.126V102.08H651.838V107.216C651.838 108.512 652.318 108.968 653.23 108.968C653.782 108.968 654.718 108.8 655.198 108.704V111.416C654.382 111.776 653.014 111.968 652.102 111.968ZM662.678 112.064C658.934 112.064 656.342 109.544 656.342 105.92V105.2C656.342 101.576 658.934 99.056 662.678 99.056H662.918C666.662 99.056 669.254 101.576 669.254 105.2V105.92C669.254 109.544 666.662 112.064 662.918 112.064H662.678ZM662.678 109.4H662.918C664.502 109.4 665.558 107.96 665.558 105.776V105.224C665.558 103.088 664.502 101.72 662.918 101.72H662.678C661.094 101.72 660.038 103.088 660.038 105.224V105.776C660.038 107.96 661.094 109.4 662.678 109.4Z" fill="black"/>
<path d="M603.485 84.995C602.975 84.995 602.465 84.905 602 84.755V82.565C602.255 82.745 602.6 82.865 602.99 82.865C603.785 82.865 604.16 82.385 604.16 81.575V74.3H606.5V81.905C606.5 83.945 605.405 84.995 603.485 84.995ZM610.932 84.965C609.267 84.965 608.322 83.885 608.322 81.995V77H610.557V81.5C610.557 82.565 610.947 83.09 611.787 83.09H611.847C612.807 83.09 613.437 82.34 613.437 81.185V77H615.672V84.8H613.902C613.812 84.515 613.707 84.02 613.677 83.66C613.032 84.455 612.087 84.965 610.992 84.965H610.932ZM617.568 84.8V74H619.803V84.8H617.568ZM623.079 87.86C622.584 87.86 621.999 87.77 621.549 87.56V85.67C621.864 85.88 622.269 86.015 622.689 86.015C623.229 86.015 623.709 85.715 624.009 85.115L620.814 77H623.139L625.119 82.73H625.224L626.709 77H628.959L626.334 85.22C625.794 86.87 624.744 87.86 623.079 87.86ZM633.229 84.8V83.165C634.879 82.16 638.239 79.58 638.239 77.435C638.239 76.625 637.714 76.115 636.934 76.115C636.139 76.115 635.494 76.67 635.314 77.915L633.124 77.51C633.409 75.41 634.909 74.12 636.934 74.12C638.899 74.12 640.504 75.305 640.504 77.33C640.504 79.7 638.359 81.545 636.589 82.835H640.729V84.8H633.229ZM649.503 76.67L647.418 77.15C647.103 76.355 646.563 75.965 645.813 75.965C644.148 75.965 643.698 77.72 643.698 79.07C644.373 78.335 645.378 77.99 646.353 77.99C648.273 77.99 649.803 79.25 649.803 81.32C649.803 83.48 648.138 84.995 645.768 84.995C643.083 84.995 641.493 83.03 641.493 79.64C641.493 76.205 643.113 74.105 645.798 74.105C647.598 74.105 648.978 75.05 649.503 76.67ZM643.803 81.17C644.028 82.34 644.718 83.015 645.753 83.015C646.848 83.015 647.598 82.28 647.598 81.245C647.598 80.27 646.878 79.64 645.873 79.64C645.018 79.64 644.148 80.045 643.803 80.795C643.788 80.915 643.788 81.035 643.803 81.17Z" fill="black"/>
<path d="M430.485 84.995C429.975 84.995 429.465 84.905 429 84.755V82.565C429.255 82.745 429.6 82.865 429.99 82.865C430.785 82.865 431.16 82.385 431.16 81.575V74.3H433.5V81.905C433.5 83.945 432.405 84.995 430.485 84.995ZM437.932 84.965C436.267 84.965 435.322 83.885 435.322 81.995V77H437.557V81.5C437.557 82.565 437.947 83.09 438.787 83.09H438.847C439.807 83.09 440.437 82.34 440.437 81.185V77H442.672V84.8H440.902C440.812 84.515 440.707 84.02 440.677 83.66C440.032 84.455 439.087 84.965 437.992 84.965H437.932ZM444.568 84.8V74H446.803V84.8H444.568ZM450.079 87.86C449.584 87.86 448.999 87.77 448.549 87.56V85.67C448.864 85.88 449.269 86.015 449.689 86.015C450.229 86.015 450.709 85.715 451.009 85.115L447.814 77H450.139L452.119 82.73H452.224L453.709 77H455.959L453.334 85.22C452.794 86.87 451.744 87.86 450.079 87.86ZM460.229 84.8V83.165C461.879 82.16 465.239 79.58 465.239 77.435C465.239 76.625 464.714 76.115 463.934 76.115C463.139 76.115 462.494 76.67 462.314 77.915L460.124 77.51C460.409 75.41 461.909 74.12 463.934 74.12C465.899 74.12 467.504 75.305 467.504 77.33C467.504 79.7 465.359 81.545 463.589 82.835H467.729V84.8H460.229ZM473.128 84.8V82.985H468.223V81.335L472.273 74.3H475.243V81.14H476.458V82.985H475.243V84.8H473.128ZM470.353 81.14H473.128V76.46H472.948L470.353 80.945V81.14Z" fill="black"/>
<path d="M403.528 112.664L400 95.864H403.816L406 108.344H406.192L409.168 95.864H412.216L415.216 108.344H415.408L417.616 95.864H421.432L417.856 112.664H413.248L410.776 102.2H410.632L408.136 112.664H403.528ZM425.124 98.648C423.9 98.648 423.084 97.928 423.084 96.848C423.084 95.768 423.9 95 425.124 95C426.372 95 427.236 95.768 427.236 96.848C427.236 97.928 426.372 98.648 425.124 98.648ZM423.324 112.664V100.184H426.9V112.664H423.324ZM429.933 112.664V100.184H432.765C432.933 100.664 433.125 101.48 433.149 102.032C434.205 100.736 435.741 99.92 437.517 99.92H437.613C440.301 99.92 441.837 101.648 441.837 104.672V112.664H438.261V105.44C438.261 103.76 437.637 102.92 436.245 102.92H436.125C434.565 102.92 433.509 104.12 433.509 105.944V112.664H429.933ZM444.652 112.664V100.184H447.484C447.652 100.664 447.844 101.48 447.868 102.032C448.924 100.736 450.46 99.92 452.236 99.92H452.332C455.02 99.92 456.556 101.648 456.556 104.672V112.664H452.98V105.44C452.98 103.76 452.356 102.92 450.964 102.92H450.844C449.284 102.92 448.228 104.12 448.228 105.944V112.664H444.652ZM461.171 98.648C459.947 98.648 459.131 97.928 459.131 96.848C459.131 95.768 459.947 95 461.171 95C462.419 95 463.283 95.768 463.283 96.848C463.283 97.928 462.419 98.648 461.171 98.648ZM459.371 112.664V100.184H462.947V112.664H459.371ZM465.956 117.464V100.184H468.788C468.932 100.544 469.052 101.096 469.124 101.576C470.06 100.544 471.428 99.92 473.036 99.92H473.252C476.516 99.92 478.748 102.416 478.748 106.064V106.784C478.748 110.432 476.516 112.928 473.252 112.928H473.036C471.644 112.928 470.444 112.472 469.532 111.656V117.464H465.956ZM472.172 110.264H472.388C473.996 110.264 475.028 108.824 475.028 106.64V106.088C475.028 103.952 473.996 102.584 472.388 102.584H472.172C470.564 102.584 469.532 103.976 469.532 106.088V106.64C469.532 108.824 470.588 110.264 472.172 110.264ZM486.476 112.928C482.708 112.928 480.188 110.432 480.188 106.688V106.232C480.188 102.536 482.732 99.944 486.332 99.944H486.644C490.004 99.944 492.356 102.32 492.356 105.632V107.408H483.668C483.836 109.064 485.012 110.072 486.716 110.072H486.932C488.324 110.072 489.452 109.4 490.196 108.584L491.972 110.816C490.772 112.04 488.78 112.928 486.86 112.928H486.476ZM483.764 105.224H488.972V105.152C488.924 103.52 487.964 102.56 486.596 102.56H486.356C484.964 102.56 484.028 103.544 483.764 105.224ZM493.711 104.648V104.384C493.711 101.816 496.039 99.92 499.159 99.92H499.879C500.551 99.92 501.175 100.016 501.751 100.16C501.991 99.416 502.279 98.816 502.567 98.432H505.639L504.103 101.48C504.895 102.248 505.351 103.256 505.351 104.384V104.648C505.351 107.24 502.999 109.112 499.879 109.112H499.663C499.423 109.112 499.207 109.112 498.991 109.088V110.288C499.327 110.264 499.615 110.264 499.975 110.264H500.287C503.527 110.264 505.831 111.704 505.831 113.864V114.08C505.831 116.24 503.455 117.728 500.239 117.728H499.207C495.967 117.728 493.615 116.24 493.615 114.08V113.768C493.615 112.328 494.647 111.176 496.279 110.576V108.488C494.695 107.744 493.711 106.328 493.711 104.648ZM497.191 104.456V104.816C497.191 105.992 498.175 106.76 499.351 106.76H499.711C500.863 106.76 501.871 105.968 501.871 104.816V104.456C501.871 103.28 500.863 102.488 499.711 102.488H499.351C498.175 102.488 497.191 103.256 497.191 104.456ZM497.167 113.672V113.912C497.167 114.632 498.007 115.208 499.399 115.208H500.119C501.535 115.208 502.375 114.608 502.375 113.912V113.672C502.375 112.952 501.511 112.376 500.119 112.376H499.399C498.007 112.376 497.167 112.928 497.167 113.672Z" fill="black"/>
<path d="M241.376 112.112C240.56 112.112 239.744 111.968 239 111.728V108.224C239.408 108.512 239.96 108.704 240.584 108.704C241.856 108.704 242.456 107.936 242.456 106.64V95H246.2V107.168C246.2 110.432 244.448 112.112 241.376 112.112ZM252.739 112.064C250.315 112.064 248.587 110.6 248.587 108.392V108.104C248.587 105.44 250.843 104.072 255.571 104.072H256.507V103.712C256.507 102.56 255.787 101.816 254.395 101.816H254.275C253.123 101.816 251.827 102.2 250.531 103.04L249.187 100.592C250.675 99.632 252.619 99.056 254.539 99.056H254.755C257.923 99.056 259.867 100.832 259.867 103.832V108.944C259.867 109.952 260.035 110.864 260.299 111.8H256.963C256.819 111.416 256.699 110.912 256.627 110.384C255.715 111.44 254.275 112.064 252.739 112.064ZM253.651 109.352C254.707 109.352 255.763 108.872 256.507 108.032V106.16H255.787C253.195 106.16 251.971 106.736 251.971 107.888V108.008C251.971 108.8 252.643 109.352 253.651 109.352ZM267.678 112.088C265.423 112.088 263.431 111.464 261.823 110.336L263.503 107.768C264.487 108.656 266.167 109.256 267.535 109.256C268.615 109.256 269.167 108.872 269.167 108.152C269.167 107.072 267.895 107.192 265.327 106.28C263.791 105.8 262.279 105.008 262.279 102.896C262.279 100.52 264.103 99.032 266.983 99.032C268.783 99.032 270.583 99.632 271.975 100.64L270.295 103.064C269.359 102.32 268.063 101.84 266.863 101.84C265.951 101.84 265.471 102.176 265.471 102.824C265.471 103.76 266.767 103.952 268.279 104.312C270.247 104.816 272.527 105.536 272.527 108.176C272.527 110.552 270.607 112.088 267.678 112.088ZM274.526 116.6V99.32H277.358C277.502 99.68 277.622 100.232 277.694 100.712C278.63 99.68 279.998 99.056 281.606 99.056H281.822C285.086 99.056 287.318 101.552 287.318 105.2V105.92C287.318 109.568 285.086 112.064 281.822 112.064H281.606C280.214 112.064 279.014 111.608 278.102 110.792V116.6H274.526ZM280.742 109.4H280.958C282.566 109.4 283.598 107.96 283.598 105.776V105.224C283.598 103.088 282.566 101.72 280.958 101.72H280.742C279.134 101.72 278.102 103.112 278.102 105.224V105.776C278.102 107.96 279.158 109.4 280.742 109.4ZM295.046 112.064C291.278 112.064 288.758 109.568 288.758 105.824V105.368C288.758 101.672 291.302 99.08 294.902 99.08H295.214C298.574 99.08 300.926 101.456 300.926 104.768V106.544H292.238C292.406 108.2 293.582 109.208 295.286 109.208H295.502C296.894 109.208 298.022 108.536 298.766 107.72L300.542 109.952C299.342 111.176 297.35 112.064 295.43 112.064H295.046ZM292.334 104.36H297.542V104.288C297.494 102.656 296.534 101.696 295.166 101.696H294.926C293.534 101.696 292.598 102.68 292.334 104.36ZM303.097 111.8V99.32H305.905C306.073 99.8 306.241 100.52 306.265 101.048C307.177 99.968 308.497 99.32 310.033 99.32H310.393V102.68C310.129 102.608 309.721 102.56 309.361 102.56C307.633 102.56 306.673 103.52 306.673 105.224V111.8H303.097Z" fill="black"/>
<path d="M252.485 84.995C251.975 84.995 251.465 84.905 251 84.755V82.565C251.255 82.745 251.6 82.865 251.99 82.865C252.785 82.865 253.16 82.385 253.16 81.575V74.3H255.5V81.905C255.5 83.945 254.405 84.995 252.485 84.995ZM259.932 84.965C258.267 84.965 257.322 83.885 257.322 81.995V77H259.557V81.5C259.557 82.565 259.947 83.09 260.787 83.09H260.847C261.807 83.09 262.437 82.34 262.437 81.185V77H264.672V84.8H262.902C262.812 84.515 262.707 84.02 262.677 83.66C262.032 84.455 261.087 84.965 259.992 84.965H259.932ZM266.568 84.8V74H268.803V84.8H266.568ZM272.079 87.86C271.584 87.86 270.999 87.77 270.549 87.56V85.67C270.864 85.88 271.269 86.015 271.689 86.015C272.229 86.015 272.709 85.715 273.009 85.115L269.814 77H272.139L274.119 82.73H274.224L275.709 77H277.959L275.334 85.22C274.794 86.87 273.744 87.86 272.079 87.86ZM282.229 84.8V83.165C283.879 82.16 287.239 79.58 287.239 77.435C287.239 76.625 286.714 76.115 285.934 76.115C285.139 76.115 284.494 76.67 284.314 77.915L282.124 77.51C282.409 75.41 283.909 74.12 285.934 74.12C287.899 74.12 289.504 75.305 289.504 77.33C289.504 79.7 287.359 81.545 285.589 82.835H289.729V84.8H282.229ZM294.288 84.98C292.503 84.98 290.883 84.05 290.343 82.265L292.338 81.74C292.683 82.505 293.298 82.97 294.273 82.97C295.323 82.97 296.028 82.295 296.028 81.215C296.028 80.225 295.413 79.58 294.408 79.58C293.838 79.58 293.328 79.76 292.953 80L292.263 78.77L294.933 76.28H290.853V74.3H297.663V75.935L295.248 78.065H295.353C297.093 78.155 298.308 79.415 298.308 81.275C298.308 83.6 296.463 84.98 294.288 84.98Z" fill="black"/>
<path d="M737 115.92V90.72H744.92L749.888 105.372H750.14L755.108 90.72H762.992V115.92H757.52V97.416H757.232L752.084 112.572H747.944L742.76 97.416H742.472V115.92H737ZM776.245 116.316C770.629 116.316 766.741 112.536 766.741 107.1V106.02C766.741 100.584 770.629 96.804 776.245 96.804H776.605C782.221 96.804 786.109 100.584 786.109 106.02V107.1C786.109 112.536 782.221 116.316 776.605 116.316H776.245ZM776.245 112.32H776.605C778.981 112.32 780.565 110.16 780.565 106.884V106.056C780.565 102.852 778.981 100.8 776.605 100.8H776.245C773.869 100.8 772.285 102.852 772.285 106.056V106.884C772.285 110.16 773.869 112.32 776.245 112.32ZM789.48 115.92V97.2H793.728C793.98 97.92 794.268 99.144 794.304 99.972C795.888 98.028 798.192 96.804 800.856 96.804H801C805.032 96.804 807.336 99.396 807.336 103.932V115.92H801.972V105.084C801.972 102.564 801.036 101.304 798.948 101.304H798.768C796.428 101.304 794.844 103.104 794.844 105.84V115.92H789.48ZM817.827 116.172C814.407 116.172 812.139 114.264 812.139 110.052V101.34H809.691V97.776C810.339 97.56 811.311 97.308 812.139 97.236V92.88L817.467 92.232V97.2H822.363V101.34H817.431V109.044C817.431 110.988 818.151 111.672 819.519 111.672C820.347 111.672 821.751 111.42 822.471 111.276V115.344C821.247 115.884 819.195 116.172 817.827 116.172ZM825.515 115.92V97.2H829.727C829.979 97.92 830.231 99 830.267 99.792C831.635 98.172 833.615 97.2 835.919 97.2H836.459V102.24C836.063 102.132 835.451 102.06 834.911 102.06C832.319 102.06 830.879 103.5 830.879 106.056V115.92H825.515ZM847.611 116.316C841.959 116.316 838.179 112.572 838.179 106.956V106.272C838.179 100.728 841.995 96.84 847.395 96.84H847.863C852.903 96.84 856.431 100.404 856.431 105.372V108.036H843.399C843.651 110.52 845.415 112.032 847.971 112.032H848.295C850.383 112.032 852.075 111.024 853.191 109.8L855.855 113.148C854.055 114.984 851.067 116.316 848.187 116.316H847.611ZM843.543 104.76H851.355V104.652C851.283 102.204 849.843 100.764 847.791 100.764H847.431C845.343 100.764 843.939 102.24 843.543 104.76ZM864.799 116.316C861.163 116.316 858.571 114.12 858.571 110.808V110.376C858.571 106.38 861.955 104.328 869.047 104.328H870.451V103.788C870.451 102.06 869.371 100.944 867.283 100.944H867.103C865.375 100.944 863.431 101.52 861.487 102.78L859.471 99.108C861.703 97.668 864.619 96.804 867.499 96.804H867.823C872.575 96.804 875.491 99.468 875.491 103.968V111.636C875.491 113.148 875.743 114.516 876.139 115.92H871.135C870.919 115.344 870.739 114.588 870.631 113.796C869.263 115.38 867.103 116.316 864.799 116.316ZM866.167 112.248C867.751 112.248 869.335 111.528 870.451 110.268V107.46H869.371C865.483 107.46 863.647 108.324 863.647 110.052V110.232C863.647 111.42 864.655 112.248 866.167 112.248ZM879.972 115.92V90H885.336V115.92H879.972Z" fill="black"/>
<path d="M788.485 84.995C787.975 84.995 787.465 84.905 787 84.755V82.565C787.255 82.745 787.6 82.865 787.99 82.865C788.785 82.865 789.16 82.385 789.16 81.575V74.3H791.5V81.905C791.5 83.945 790.405 84.995 788.485 84.995ZM795.932 84.965C794.267 84.965 793.322 83.885 793.322 81.995V77H795.557V81.5C795.557 82.565 795.947 83.09 796.787 83.09H796.847C797.807 83.09 798.437 82.34 798.437 81.185V77H800.672V84.8H798.902C798.812 84.515 798.707 84.02 798.677 83.66C798.032 84.455 797.087 84.965 795.992 84.965H795.932ZM802.568 84.8V74H804.803V84.8H802.568ZM808.079 87.86C807.584 87.86 806.999 87.77 806.549 87.56V85.67C806.864 85.88 807.269 86.015 807.689 86.015C808.229 86.015 808.709 85.715 809.009 85.115L805.814 77H808.139L810.119 82.73H810.224L811.709 77H813.959L811.334 85.22C810.794 86.87 809.744 87.86 808.079 87.86ZM818.229 84.8V83.165C819.879 82.16 823.239 79.58 823.239 77.435C823.239 76.625 822.714 76.115 821.934 76.115C821.139 76.115 820.494 76.67 820.314 77.915L818.124 77.51C818.409 75.41 819.909 74.12 821.934 74.12C823.899 74.12 825.504 75.305 825.504 77.33C825.504 79.7 823.359 81.545 821.589 82.835H825.729V84.8H818.229ZM830.453 84.98C827.978 84.98 826.403 83.765 826.403 81.875C826.403 80.63 827.108 79.685 828.293 79.19C827.348 78.74 826.823 77.93 826.823 76.88C826.823 75.185 828.218 74.105 830.453 74.105C832.673 74.105 834.068 75.185 834.068 76.88C834.068 77.93 833.543 78.74 832.613 79.19C833.798 79.685 834.503 80.63 834.503 81.875C834.503 83.765 832.928 84.98 830.453 84.98ZM830.453 78.425C831.413 78.425 831.998 77.975 831.998 77.195C831.998 76.415 831.413 75.965 830.453 75.965C829.478 75.965 828.908 76.415 828.908 77.195C828.908 77.975 829.478 78.425 830.453 78.425ZM830.453 83.03C831.653 83.03 832.313 82.49 832.313 81.59C832.313 80.675 831.653 80.135 830.453 80.135C829.268 80.135 828.563 80.675 828.563 81.59C828.563 82.49 829.268 83.03 830.453 83.03Z" fill="black"/>
<path d="M7.632 115.2L0 90H5.94L11.196 109.476H11.52L16.74 90H22.716L15.048 115.2H7.632ZM28.435 115.596C24.799 115.596 22.207 113.4 22.207 110.088V109.656C22.207 105.66 25.591 103.608 32.683 103.608H34.087V103.068C34.087 101.34 33.007 100.224 30.919 100.224H30.739C29.011 100.224 27.067 100.8 25.123 102.06L23.107 98.388C25.339 96.948 28.255 96.084 31.135 96.084H31.459C36.211 96.084 39.127 98.748 39.127 103.248V110.916C39.127 112.428 39.379 113.796 39.775 115.2H34.771C34.555 114.624 34.375 113.868 34.267 113.076C32.899 114.66 30.739 115.596 28.435 115.596ZM29.803 111.528C31.387 111.528 32.971 110.808 34.087 109.548V106.74H33.007C29.119 106.74 27.283 107.604 27.283 109.332V109.512C27.283 110.7 28.291 111.528 29.803 111.528ZM43.608 115.2V96.48H47.856C48.108 97.2 48.396 98.424 48.432 99.252C50.016 97.308 52.32 96.084 54.984 96.084H55.128C59.16 96.084 61.464 98.676 61.464 103.212V115.2H56.1V104.364C56.1 101.844 55.164 100.584 53.076 100.584H52.896C50.556 100.584 48.972 102.384 48.972 105.12V115.2H43.608ZM73.679 115.56C68.243 115.56 64.499 111.672 64.499 106.308V105.3C64.499 100.008 68.387 96.12 73.535 96.12H73.859C77.135 96.12 79.871 97.596 81.707 100.26L77.927 102.96C76.847 101.052 75.659 100.224 74.039 100.224H73.823C71.483 100.224 70.043 102.132 70.043 105.516V106.164C70.043 109.404 71.591 111.348 73.967 111.348H74.291C75.803 111.348 77.063 110.448 78.107 108.612L81.851 111.492C79.979 114.156 77.351 115.56 74.002 115.56H73.679ZM92.811 115.596C87.195 115.596 83.307 111.816 83.307 106.38V105.3C83.307 99.864 87.195 96.084 92.811 96.084H93.171C98.787 96.084 102.675 99.864 102.675 105.3V106.38C102.675 111.816 98.787 115.596 93.171 115.596H92.811ZM92.811 111.6H93.171C95.547 111.6 97.131 109.44 97.131 106.164V105.336C97.131 102.132 95.547 100.08 93.171 100.08H92.811C90.435 100.08 88.851 102.132 88.851 105.336V106.164C88.851 109.44 90.435 111.6 92.811 111.6ZM111.986 115.596C107.99 115.596 105.722 113.004 105.722 108.468V96.48H111.086V107.28C111.086 109.836 112.022 111.096 114.038 111.096H114.182C116.486 111.096 117.998 109.296 117.998 106.524V96.48H123.362V115.2H119.114C118.898 114.516 118.646 113.328 118.574 112.464C117.026 114.372 114.758 115.596 112.13 115.596H111.986ZM132.089 115.2L125.861 96.48H131.477L135.257 110.52H135.617L139.397 96.48H145.013L138.785 115.2H132.089ZM155.739 115.596C150.087 115.596 146.307 111.852 146.307 106.236V105.552C146.307 100.008 150.123 96.12 155.523 96.12H155.991C161.031 96.12 164.559 99.684 164.559 104.652V107.316H151.527C151.779 109.8 153.543 111.312 156.099 111.312H156.423C158.511 111.312 160.203 110.304 161.319 109.08L163.983 112.428C162.183 114.264 159.195 115.596 156.315 115.596H155.739ZM151.671 104.04H159.483V103.932C159.411 101.484 157.971 100.044 155.919 100.044H155.559C153.471 100.044 152.067 101.52 151.671 104.04ZM167.815 115.2V96.48H172.027C172.279 97.2 172.531 98.28 172.567 99.072C173.935 97.452 175.915 96.48 178.219 96.48H178.759V101.52C178.363 101.412 177.751 101.34 177.211 101.34C174.619 101.34 173.179 102.78 173.179 105.336V115.2H167.815Z" fill="black"/>
<path d="M67 84.755C67.465 84.905 67.975 84.995 68.485 84.995C70.405 84.995 71.5 83.945 71.5 81.905V74.3H69.16V81.575C69.16 82.385 68.785 82.865 67.99 82.865C67.6 82.865 67.255 82.745 67 82.565V84.755Z" fill="black"/>
<path d="M73.3219 81.995C73.3219 83.885 74.2669 84.965 75.9319 84.965H75.9919C77.0869 84.965 78.0319 84.455 78.6769 83.66C78.7069 84.02 78.8119 84.515 78.9019 84.8H80.6719V77H78.4369V81.185C78.4369 82.34 77.8069 83.09 76.8469 83.09H76.7869C75.9469 83.09 75.5569 82.565 75.5569 81.5V77H73.3219V81.995Z" fill="black"/>
<path d="M82.5682 74V84.8H84.8032V74H82.5682Z" fill="black"/>
<path d="M86.5491 87.56C86.9991 87.77 87.584 87.86 88.079 87.86C89.744 87.86 90.794 86.87 91.334 85.22L93.959 77H91.709L90.224 82.73H90.119L88.139 77H85.8141L89.009 85.115C88.709 85.715 88.229 86.015 87.689 86.015C87.2691 86.015 86.8641 85.88 86.5491 85.67V87.56Z" fill="black"/>
<path d="M98.229 83.165V84.8H105.729V82.835H101.589C103.359 81.545 105.504 79.7 105.504 77.33C105.504 75.305 103.899 74.12 101.934 74.12C99.909 74.12 98.409 75.41 98.124 77.51L100.314 77.915C100.494 76.67 101.139 76.115 101.934 76.115C102.714 76.115 103.239 76.625 103.239 77.435C103.239 79.58 99.879 82.16 98.229 83.165Z" fill="black"/>
<path d="M110.918 74.3H108.863C108.863 75.71 107.873 76.61 106.373 76.67V78.44C107.288 78.44 108.113 78.2 108.713 77.78V84.8H110.918V74.3Z" fill="black"/>
<path d="M114.738 15.5C100.313 15.5 88.6192 21.768 88.6192 29.5C88.6192 37.232 100.313 43.5 114.738 43.5L799.433 43.5C813.859 43.5 825.553 37.232 825.553 29.5C825.553 21.768 813.859 15.5 799.433 15.5L114.738 15.5Z" fill="#AAAD83" fill-opacity="0.5"/>
<path d="M121.5 30C121.5 13.7076 108.292 0.5 92 0.5C75.7076 0.5 62.5 13.7076 62.5 30C62.5 46.2924 75.7076 59.5 92 59.5C108.292 59.5 121.5 46.2924 121.5 30Z" fill="#76728B"/>
<path d="M296.5 30C296.5 18.402 287.098 9 275.5 9C263.902 9 254.5 18.402 254.5 30C254.5 41.598 263.902 51 275.5 51C287.098 51 296.5 41.598 296.5 30Z" fill="#76728B"/>
<path d="M471.5 30C471.5 18.402 462.098 9 450.5 9C438.902 9 429.5 18.402 429.5 30C429.5 41.598 438.902 51 450.5 51C462.098 51 471.5 41.598 471.5 30Z" fill="#76728B"/>
<path d="M646.5 30C646.5 18.402 637.098 9 625.5 9C613.902 9 604.5 18.402 604.5 30C604.5 41.598 613.902 51 625.5 51C637.098 51 646.5 41.598 646.5 30Z" fill="#76728B"/>
<path d="M838.5 30C838.5 13.7076 825.292 0.5 809 0.5C792.708 0.5 779.5 13.7076 779.5 30C779.5 46.2924 792.708 59.5 809 59.5C825.292 59.5 838.5 46.2924 838.5 30Z" fill="#76728B"/>
</svg>
