<svg width="491" height="426" viewBox="0 0 491 426" fill="none" xmlns="http://www.w3.org/2000/svg">
<path d="M80.545 8.155L79.825 4H86.695C86.155 4.72 85.975 5.545 85.975 7.135V12.37C85.96 16.885 84.895 18.655 82.24 18.655C79.93 18.655 78.565 16.54 79.6 14.59L82.87 12.385C82.87 12.385 80.8 14.215 80.8 16.36C80.8 17.425 81.295 18.04 82.195 18.04C83.545 18.04 84.205 16.3 84.22 12.37V4.6C82.27 4.615 80.875 5.68 80.545 8.155ZM88.6165 7.6H91.9615C91.1665 7.885 90.8215 8.545 90.8215 9.745V13.285C90.8215 14.65 91.1815 15.235 92.0515 15.235C92.8465 15.235 93.5065 14.755 94.2265 13.66V9.745C94.2265 8.545 93.8815 7.885 93.0865 7.6H96.4165C96.1165 8.08 95.9215 8.95 95.9215 9.745V13.87C95.9215 14.635 96.1315 15.505 96.4165 16H94.2265V14.2C93.2965 15.565 92.3965 16.165 91.2565 16.165C89.9215 16.165 89.1115 15.1 89.1115 13.285V9.745C89.1115 8.95 88.9165 8.08 88.6165 7.6ZM100.808 16H98.1234C98.4234 15.52 98.6184 14.65 98.6184 13.855V6.49C98.6184 5.77 98.4234 5.05 98.1234 4.54L98.6184 4.345L100.823 3.595C100.538 4.075 100.313 5.065 100.313 5.86V13.855C100.313 14.65 100.508 15.52 100.808 16ZM102.863 9.01L102.878 9.04C102.878 9.025 102.863 9.025 102.863 9.01ZM105.128 16.12L105.113 16.15C105.113 16.135 105.113 16.135 105.128 16.12ZM106.313 18.985H103.073C104.003 18.295 104.648 17.41 105.113 16.15L105.128 16.12C105.113 16.135 105.113 16.135 105.113 16.15L104.078 18.985L105.713 14.515L102.773 8.83C102.473 8.305 102.038 7.72 101.843 7.6H104.888C104.348 7.9 104.333 8.425 104.693 9.19L103.883 7.6L106.418 12.595L107.768 8.935C107.918 8.335 107.753 7.915 107.243 7.6H110.333C110.108 7.72 109.778 8.32 109.493 9.04L110.018 7.6L106.418 17.35C106.133 18.325 106.103 18.85 106.313 18.985ZM122.762 12.76L122.492 14.725L122.297 16H115.307V15.325C119.492 11.125 120.662 9.22 120.662 6.535C120.662 5.14 119.972 4.27 118.847 4.27C117.617 4.27 116.837 5.335 116.837 7.06C116.837 8.665 117.572 9.715 117.572 9.715L115.397 7.615C115.397 5.335 116.807 3.835 118.982 3.835C121.082 3.835 122.552 5.215 122.552 7.18C122.552 9.445 121.097 11.455 116.882 14.725H119.777C121.112 14.71 122.327 13.915 122.762 12.76ZM125.911 13.855V6.97H124.711L127.666 3.835V13.855C127.666 14.65 127.861 15.52 128.161 16H125.176C125.701 15.595 125.911 14.935 125.911 13.855ZM85.072 38.672L85.024 38.576C85.048 38.6 85.048 38.648 85.072 38.672ZM96.232 38.648L92.176 48.56C91.552 50.168 90.76 52.328 91.024 53H87.472C87.736 52.328 86.944 50.168 86.32 48.56L82.264 38.648C80.872 35.432 80.032 34.016 79.384 33.8H88C85.288 34.112 84.112 35.936 84.976 38.408L89.248 49.376L93.496 38.48C94.432 35.864 93.328 34.112 90.496 33.8H99.112C98.464 34.016 97.624 35.432 96.232 38.648ZM107.362 53H103.426V51.68C102.706 52.736 101.794 53.264 100.618 53.264C98.746 53.264 97.33 51.704 97.33 49.664C97.33 47.12 100.042 45.944 101.842 44.816C102.994 44.072 103.474 43.544 103.474 42.824C103.474 41.96 102.826 41.432 101.818 41.432C100.426 41.432 99.154 42.488 98.242 44.336L98.962 40.28C99.778 39.752 101.41 39.296 102.61 39.296C104.77 39.296 106.138 40.304 106.138 41.936C106.138 43.208 105.418 43.904 102.946 45.152C100.594 46.376 99.682 47.528 99.682 49.232C99.682 50.888 100.57 52.088 101.722 52.088C102.658 52.088 103.354 51.224 103.426 50.336V46.04C104.722 45.632 105.802 45.008 106.138 44.456V49.592C106.138 50.864 106.714 52.472 107.362 53ZM122.827 53H117.499C118.771 52.544 119.323 51.488 119.323 49.568V43.904C119.323 41.72 118.723 40.784 117.331 40.784C116.083 40.784 115.027 41.552 113.851 43.304V49.568C113.851 51.488 114.403 52.544 115.675 53H110.347C110.827 52.232 111.139 50.84 111.139 49.568V43.784C111.139 42.632 110.851 41.48 110.347 40.664L111.139 40.352L113.851 39.368V42.44C115.339 40.256 116.803 39.296 118.603 39.296C120.763 39.296 122.035 41 122.035 43.904V49.568C122.035 50.84 122.347 52.232 122.827 53ZM135.758 44.528C135.11 42.416 132.878 40.832 130.526 40.832C128.558 40.832 127.118 42.272 126.998 44.552C126.806 48.128 130.382 51.752 134.126 51.752C135.926 51.752 137.222 50.96 137.222 50.96C136.406 52.352 134.318 53.264 131.918 53.264C127.982 53.264 125.174 50.48 125.174 46.592C125.174 42.584 128.318 39.296 132.182 39.296C133.382 39.296 135.158 39.608 136.262 40.064L135.758 44.528ZM145.737 53.264C142.185 53.264 139.377 50.408 139.377 46.592C139.377 42.536 142.569 39.296 146.313 39.296C149.841 39.296 152.673 42.152 152.673 45.92C152.673 49.976 149.481 53.264 145.737 53.264ZM147.369 51.704C149.337 51.704 150.873 50.096 150.873 48.032C150.873 44.72 147.561 40.808 144.729 40.808C142.665 40.808 141.201 42.464 141.201 44.552C141.201 47.816 144.513 51.704 147.369 51.704ZM155.254 39.56H160.606C159.334 40.016 158.782 41.072 158.782 42.992V48.656C158.782 50.84 159.358 51.776 160.75 51.776C162.022 51.776 163.078 51.008 164.23 49.256V42.992C164.23 41.072 163.678 40.016 162.406 39.56H167.734C167.254 40.328 166.942 41.72 166.942 42.992V49.592C166.942 50.816 167.278 52.208 167.734 53H164.23V50.12C162.742 52.304 161.302 53.264 159.478 53.264C157.342 53.264 156.046 51.56 156.046 48.656V42.992C156.046 41.72 155.734 40.328 155.254 39.56ZM171.497 43.832L171.689 44.408C171.617 44.216 171.569 44 171.497 43.832ZM173.777 42.296L173.753 42.248C173.753 42.248 173.777 42.272 173.777 42.296ZM180.041 44.408L180.281 43.736C180.185 43.952 180.113 44.168 180.041 44.408ZM177.689 39.56H182.561C181.913 39.944 181.241 41.216 180.497 43.136L177.017 53H174.305L171.161 42.824C170.489 40.904 169.913 39.896 169.361 39.56H175.385C174.041 39.824 173.441 40.784 173.705 41.984L176.225 50.432L179.201 42.104C179.513 40.856 179.057 39.848 177.689 39.56ZM186.833 47.84L194.273 44.432C193.505 42.32 191.825 40.76 189.545 40.76C187.361 40.76 185.825 42.2 185.825 44.408C185.825 45.608 186.209 46.808 186.833 47.84ZM196.697 44.216L187.217 48.416C188.537 50.264 190.673 51.56 192.881 51.56C194.633 51.56 196.289 50.792 197.681 49.232L197.753 49.28C196.409 51.656 193.649 53.264 190.865 53.264C186.953 53.264 184.025 50.312 184.025 46.4C184.025 42.32 186.905 39.296 190.721 39.296C193.793 39.296 196.121 41.312 196.697 44.216ZM201.163 49.544V42.368C201.163 41.24 200.971 40.52 200.371 39.536H203.899V42.992C205.003 40.928 206.755 39.296 208.027 39.296C208.507 39.296 208.723 39.68 208.723 39.68L208.123 43.832C208.123 43.832 208.171 41.648 206.683 41.648C205.771 41.648 204.475 42.704 203.899 43.808V49.544C203.899 50.864 204.211 52.232 204.691 53H200.371C200.851 52.232 201.163 50.864 201.163 49.544ZM211.502 49.736H215.246C215.246 52.328 213.638 55.328 211.334 56.96H209.486C211.31 55.28 212.222 52.112 211.502 49.736ZM227.209 41.408V48.8C227.209 50.912 228.049 52.04 229.585 52.04C231.265 52.04 232.585 50.864 232.585 48.92C232.585 44.744 228.457 44.048 227.425 42.2C227.305 41.936 227.209 41.672 227.209 41.408ZM227.209 34.784V39.44C227.209 39.584 227.329 42.152 229.345 42.152C230.785 42.152 231.865 40.832 231.865 38.816C231.865 36.488 229.849 34.784 227.209 34.784ZM230.857 43.568C233.041 44.36 235.369 45.056 235.369 47.96C235.369 51.416 232.009 52.952 228.769 52.976L227.209 53H223.225C224.113 51.824 224.425 50.504 224.425 47.96V38.84C224.425 36.296 224.113 34.952 223.225 33.8H227.209C230.209 33.776 234.505 34.568 234.505 38.84C234.505 42.128 232.177 43.232 230.857 43.568ZM252.276 34.688L251.46 39.968C250.668 37.232 247.764 35.072 244.956 35.072C241.86 35.072 239.652 37.424 239.652 40.712C239.652 46.4 244.116 51.464 249.204 51.464C250.668 51.464 252.18 50.984 253.524 50.216C253.524 50.216 252.492 53.216 247.932 53.264C242.076 53.336 237.348 48.752 237.348 43.016C237.348 37.496 241.452 33.536 247.284 33.536C250.356 33.536 252.276 34.688 252.276 34.688Z" fill="black"/>
<path d="M80.545 90.155L79.825 86H86.695C86.155 86.72 85.975 87.545 85.975 89.135V94.37C85.96 98.885 84.895 100.655 82.24 100.655C79.93 100.655 78.565 98.54 79.6 96.59L82.87 94.385C82.87 94.385 80.8 96.215 80.8 98.36C80.8 99.425 81.295 100.04 82.195 100.04C83.545 100.04 84.205 98.3 84.22 94.37V86.6C82.27 86.615 80.875 87.68 80.545 90.155ZM88.6165 89.6H91.9615C91.1665 89.885 90.8215 90.545 90.8215 91.745V95.285C90.8215 96.65 91.1815 97.235 92.0515 97.235C92.8465 97.235 93.5065 96.755 94.2265 95.66V91.745C94.2265 90.545 93.8815 89.885 93.0865 89.6H96.4165C96.1165 90.08 95.9215 90.95 95.9215 91.745V95.87C95.9215 96.635 96.1315 97.505 96.4165 98H94.2265V96.2C93.2965 97.565 92.3965 98.165 91.2565 98.165C89.9215 98.165 89.1115 97.1 89.1115 95.285V91.745C89.1115 90.95 88.9165 90.08 88.6165 89.6ZM100.808 98H98.1234C98.4234 97.52 98.6184 96.65 98.6184 95.855V88.49C98.6184 87.77 98.4234 87.05 98.1234 86.54L98.6184 86.345L100.823 85.595C100.538 86.075 100.313 87.065 100.313 87.86V95.855C100.313 96.65 100.508 97.52 100.808 98ZM102.863 91.01L102.878 91.04C102.878 91.025 102.863 91.025 102.863 91.01ZM105.128 98.12L105.113 98.15C105.113 98.135 105.113 98.135 105.128 98.12ZM106.313 100.985H103.073C104.003 100.295 104.648 99.41 105.113 98.15L105.128 98.12C105.113 98.135 105.113 98.135 105.113 98.15L104.078 100.985L105.713 96.515L102.773 90.83C102.473 90.305 102.038 89.72 101.843 89.6H104.888C104.348 89.9 104.333 90.425 104.693 91.19L103.883 89.6L106.418 94.595L107.768 90.935C107.918 90.335 107.753 89.915 107.243 89.6H110.333C110.108 89.72 109.778 90.32 109.493 91.04L110.018 89.6L106.418 99.35C106.133 100.325 106.103 100.85 106.313 100.985ZM122.762 94.76L122.492 96.725L122.297 98H115.307V97.325C119.492 93.125 120.662 91.22 120.662 88.535C120.662 87.14 119.972 86.27 118.847 86.27C117.617 86.27 116.837 87.335 116.837 89.06C116.837 90.665 117.572 91.715 117.572 91.715L115.397 89.615C115.397 87.335 116.807 85.835 118.982 85.835C121.082 85.835 122.552 87.215 122.552 89.18C122.552 91.445 121.097 93.455 116.882 96.725H119.777C121.112 96.71 122.327 95.915 122.762 94.76ZM127.996 96.56C129.196 96.56 129.976 95.675 129.976 94.295C129.976 93.095 129.226 92.36 128.026 92.36C127.516 92.36 126.976 92.495 126.571 92.825L129.331 87.275H128.911C126.856 87.275 125.596 87.965 125.086 89.36V86H132.076L129.391 91.025C131.056 91.385 131.896 92.405 131.896 94.07C131.896 96.47 130.291 98.165 128.041 98.165C126.676 98.165 125.461 97.595 124.711 96.59L125.986 94.01C125.806 95.45 126.691 96.56 127.996 96.56ZM81.472 122.448L80.32 115.8H91.312C90.448 116.952 90.16 118.272 90.16 120.816V129.192C90.136 136.416 88.432 139.248 84.184 139.248C80.488 139.248 78.304 135.864 79.96 132.744L85.192 129.216C85.192 129.216 81.88 132.144 81.88 135.576C81.88 137.28 82.672 138.264 84.112 138.264C86.272 138.264 87.328 135.48 87.352 129.192V116.76C84.232 116.784 82 118.488 81.472 122.448ZM104.01 135H100.074V133.68C99.3544 134.736 98.4424 135.264 97.2664 135.264C95.3944 135.264 93.9784 133.704 93.9784 131.664C93.9784 129.12 96.6904 127.944 98.4904 126.816C99.6424 126.072 100.122 125.544 100.122 124.824C100.122 123.96 99.4744 123.432 98.4664 123.432C97.0744 123.432 95.8024 124.488 94.8904 126.336L95.6104 122.28C96.4264 121.752 98.0584 121.296 99.2584 121.296C101.418 121.296 102.786 122.304 102.786 123.936C102.786 125.208 102.066 125.904 99.5944 127.152C97.2424 128.376 96.3304 129.528 96.3304 131.232C96.3304 132.888 97.2184 134.088 98.3704 134.088C99.3064 134.088 100.002 133.224 100.074 132.336V128.04C101.37 127.632 102.45 127.008 102.786 126.456V131.592C102.786 132.864 103.362 134.472 104.01 135ZM114.46 121.584L114.412 125.208C114.124 123.12 112.948 121.704 111.58 121.704C110.308 121.704 109.228 122.616 109.228 123.72C109.228 126.696 115.132 126.84 115.132 130.704C115.132 133.032 112.924 135.096 110.404 135.096C109.228 135.096 107.5 134.664 106.996 134.328L107.188 130.512C107.356 132.912 108.652 134.4 110.356 134.448C111.964 134.448 113.14 133.512 113.14 132.216C113.14 129.408 107.26 128.64 107.26 125.16C107.26 122.904 109.42 121.032 112.156 121.032C113.212 121.032 114.076 121.272 114.46 121.584ZM121.393 125.568V133.296C121.657 133.536 122.113 133.848 122.809 133.848C125.185 133.848 126.625 131.568 126.625 127.848C126.625 124.992 125.593 122.856 124.249 122.856C123.289 122.856 122.233 123.888 121.393 125.568ZM117.865 121.608H122.185C121.585 122.592 121.393 123.312 121.393 124.44V124.488C122.257 122.472 123.673 121.296 125.305 121.296C127.633 121.296 129.433 124.224 129.433 128.04C129.433 131.88 126.745 135.264 123.865 135.264C122.497 135.264 121.729 134.616 121.393 134.208V136.392C121.393 137.688 121.705 139.056 122.185 139.824H117.865C118.345 139.056 118.657 137.688 118.657 136.392V124.44C118.657 123.264 118.465 122.544 117.865 121.608ZM134.451 129.84L141.891 126.432C141.123 124.32 139.443 122.76 137.163 122.76C134.979 122.76 133.443 124.2 133.443 126.408C133.443 127.608 133.827 128.808 134.451 129.84ZM144.315 126.216L134.835 130.416C136.155 132.264 138.291 133.56 140.499 133.56C142.251 133.56 143.907 132.792 145.299 131.232L145.371 131.28C144.027 133.656 141.267 135.264 138.483 135.264C134.571 135.264 131.643 132.312 131.643 128.4C131.643 124.32 134.523 121.296 138.339 121.296C141.411 121.296 143.739 123.312 144.315 126.216ZM148.781 131.544V124.368C148.781 123.24 148.589 122.52 147.989 121.536H151.517V124.992C152.621 122.928 154.373 121.296 155.645 121.296C156.125 121.296 156.341 121.68 156.341 121.68L155.741 125.832C155.741 125.832 155.789 123.648 154.301 123.648C153.389 123.648 152.093 124.704 151.517 125.808V131.544C151.517 132.864 151.829 134.232 152.309 135H147.989C148.469 134.232 148.781 132.864 148.781 131.544ZM159.119 131.736H162.863C162.863 134.328 161.255 137.328 158.951 138.96H157.103C158.927 137.28 159.839 134.112 159.119 131.736ZM175.282 130.224L175.33 130.128C175.306 130.152 175.282 130.2 175.282 130.224ZM181.954 125.712L179.506 119.424L176.026 128.304C176.554 127.896 177.346 127.704 179.578 127.368C181.378 127.08 182.146 126.552 181.954 125.712ZM182.434 120.24L186.49 130.152C187.882 133.368 188.722 134.784 189.37 135H180.754C183.562 134.688 184.666 132.936 183.754 130.32L182.434 126.96C182.266 127.512 181.234 127.968 179.698 128.184C177.058 128.544 176.002 129 175.33 130.104L175.234 130.392C174.346 132.864 175.522 134.688 178.258 135H169.642C170.266 134.784 171.13 133.368 172.522 130.152L176.554 120.24C177.202 118.632 177.994 116.472 177.73 115.8H181.282C180.994 116.472 181.786 118.632 182.434 120.24ZM195.31 123.408V130.8C195.31 132.912 196.15 134.04 197.686 134.04C199.366 134.04 200.686 132.864 200.686 130.92C200.686 126.744 196.558 126.048 195.526 124.2C195.406 123.936 195.31 123.672 195.31 123.408ZM195.31 116.784V121.44C195.31 121.584 195.43 124.152 197.446 124.152C198.886 124.152 199.966 122.832 199.966 120.816C199.966 118.488 197.95 116.784 195.31 116.784ZM198.958 125.568C201.142 126.36 203.47 127.056 203.47 129.96C203.47 133.416 200.11 134.952 196.87 134.976L195.31 135H191.326C192.214 133.824 192.526 132.504 192.526 129.96V120.84C192.526 118.296 192.214 116.952 191.326 115.8H195.31C198.31 115.776 202.606 116.568 202.606 120.84C202.606 124.128 200.278 125.232 198.958 125.568Z" fill="black"/>
<path d="M80.545 180.155L79.825 176H86.695C86.155 176.72 85.975 177.545 85.975 179.135V184.37C85.96 188.885 84.895 190.655 82.24 190.655C79.93 190.655 78.565 188.54 79.6 186.59L82.87 184.385C82.87 184.385 80.8 186.215 80.8 188.36C80.8 189.425 81.295 190.04 82.195 190.04C83.545 190.04 84.205 188.3 84.22 184.37V176.6C82.27 176.615 80.875 177.68 80.545 180.155ZM88.6165 179.6H91.9615C91.1665 179.885 90.8215 180.545 90.8215 181.745V185.285C90.8215 186.65 91.1815 187.235 92.0515 187.235C92.8465 187.235 93.5065 186.755 94.2265 185.66V181.745C94.2265 180.545 93.8815 179.885 93.0865 179.6H96.4165C96.1165 180.08 95.9215 180.95 95.9215 181.745V185.87C95.9215 186.635 96.1315 187.505 96.4165 188H94.2265V186.2C93.2965 187.565 92.3965 188.165 91.2565 188.165C89.9215 188.165 89.1115 187.1 89.1115 185.285V181.745C89.1115 180.95 88.9165 180.08 88.6165 179.6ZM100.808 188H98.1234C98.4234 187.52 98.6184 186.65 98.6184 185.855V178.49C98.6184 177.77 98.4234 177.05 98.1234 176.54L98.6184 176.345L100.823 175.595C100.538 176.075 100.313 177.065 100.313 177.86V185.855C100.313 186.65 100.508 187.52 100.808 188ZM102.863 181.01L102.878 181.04C102.878 181.025 102.863 181.025 102.863 181.01ZM105.128 188.12L105.113 188.15C105.113 188.135 105.113 188.135 105.128 188.12ZM106.313 190.985H103.073C104.003 190.295 104.648 189.41 105.113 188.15L105.128 188.12C105.113 188.135 105.113 188.135 105.113 188.15L104.078 190.985L105.713 186.515L102.773 180.83C102.473 180.305 102.038 179.72 101.843 179.6H104.888C104.348 179.9 104.333 180.425 104.693 181.19L103.883 179.6L106.418 184.595L107.768 180.935C107.918 180.335 107.753 179.915 107.243 179.6H110.333C110.108 179.72 109.778 180.32 109.493 181.04L110.018 179.6L106.418 189.35C106.133 190.325 106.103 190.85 106.313 190.985ZM122.762 184.76L122.492 186.725L122.297 188H115.307V187.325C119.492 183.125 120.662 181.22 120.662 178.535C120.662 177.14 119.972 176.27 118.847 176.27C117.617 176.27 116.837 177.335 116.837 179.06C116.837 180.665 117.572 181.715 117.572 181.715L115.397 179.615C115.397 177.335 116.807 175.835 118.982 175.835C121.082 175.835 122.552 177.215 122.552 179.18C122.552 181.445 121.097 183.455 116.882 186.725H119.777C121.112 186.71 122.327 185.915 122.762 184.76ZM126.271 182.675H129.391V178.175L126.271 182.675ZM132.076 188H128.461C128.986 187.595 129.391 186.935 129.391 185.855V183.965H124.711V182.675L129.391 176H131.146V182.675H131.476C132.211 182.675 132.901 182.495 133.171 182.24V182.675L133.156 183.965V184.4C132.886 184.145 132.196 183.965 131.461 183.965H131.146V185.855C131.146 186.935 131.551 187.595 132.076 188ZM84.232 220.944L84.256 221.04C84.256 220.992 84.256 220.968 84.232 220.944ZM99.472 221.04L99.496 220.944C99.496 220.968 99.472 220.992 99.472 221.04ZM84.448 211.104L84.4 211.008C84.424 211.032 84.424 211.08 84.448 211.104ZM99.328 211.008L99.304 211.104C99.304 211.08 99.304 211.056 99.328 211.008ZM95.512 205.8H104.32C103.672 206.712 102.832 208.8 102.328 210.6L103.624 205.8L99.4 221.304C99.112 222.624 99.088 224.376 99.352 225H95.512L91.84 212.856L88.216 225H84.376C84.64 224.376 84.616 222.624 84.328 221.304L80.104 205.8L81.4 210.6C80.92 208.8 80.056 206.712 79.408 205.8H88.216C85.168 206.544 83.848 208.224 84.328 210.696L86.992 220.488L91.84 205.56L96.736 220.488L99.4 210.696C99.904 208.224 98.584 206.568 95.512 205.8ZM106.294 211.56H110.59C109.99 212.544 109.798 213.24 109.798 214.392V221.568C109.798 222.84 110.11 224.232 110.59 225H106.294C106.774 224.232 107.086 222.84 107.086 221.568V214.392C107.086 213.24 106.894 212.544 106.294 211.56ZM110.278 207.024C110.278 208.032 109.438 208.872 108.43 208.872C107.398 208.872 106.606 208.032 106.606 207.024C106.606 206.016 107.398 205.176 108.43 205.176C109.438 205.176 110.278 206.016 110.278 207.024ZM126.109 225H120.781C122.053 224.544 122.605 223.488 122.605 221.568V215.904C122.605 213.72 122.005 212.784 120.613 212.784C119.365 212.784 118.309 213.552 117.133 215.304V221.568C117.133 223.488 117.685 224.544 118.957 225H113.629C114.109 224.232 114.421 222.84 114.421 221.568V215.784C114.421 214.632 114.133 213.48 113.629 212.664L114.421 212.352L117.133 211.368V214.44C118.621 212.256 120.085 211.296 121.885 211.296C124.045 211.296 125.317 213 125.317 215.904V221.568C125.317 222.84 125.629 224.232 126.109 225ZM141.32 225H135.992C137.264 224.544 137.816 223.488 137.816 221.568V215.904C137.816 213.72 137.216 212.784 135.824 212.784C134.576 212.784 133.52 213.552 132.344 215.304V221.568C132.344 223.488 132.896 224.544 134.168 225H128.84C129.32 224.232 129.632 222.84 129.632 221.568V215.784C129.632 214.632 129.344 213.48 128.84 212.664L129.632 212.352L132.344 211.368V214.44C133.832 212.256 135.296 211.296 137.096 211.296C139.256 211.296 140.528 213 140.528 215.904V221.568C140.528 222.84 140.84 224.232 141.32 225ZM144.123 211.56H148.419C147.819 212.544 147.627 213.24 147.627 214.392V221.568C147.627 222.84 147.939 224.232 148.419 225H144.123C144.603 224.232 144.915 222.84 144.915 221.568V214.392C144.915 213.24 144.723 212.544 144.123 211.56ZM148.107 207.024C148.107 208.032 147.267 208.872 146.259 208.872C145.227 208.872 144.435 208.032 144.435 207.024C144.435 206.016 145.227 205.176 146.259 205.176C147.267 205.176 148.107 206.016 148.107 207.024ZM154.745 215.568V223.296C155.009 223.536 155.465 223.848 156.161 223.848C158.537 223.848 159.977 221.568 159.977 217.848C159.977 214.992 158.945 212.856 157.601 212.856C156.641 212.856 155.585 213.888 154.745 215.568ZM151.217 211.608H155.537C154.937 212.592 154.745 213.312 154.745 214.44V214.488C155.609 212.472 157.025 211.296 158.657 211.296C160.985 211.296 162.785 214.224 162.785 218.04C162.785 221.88 160.097 225.264 157.217 225.264C155.849 225.264 155.081 224.616 154.745 224.208V226.392C154.745 227.688 155.057 229.056 155.537 229.824H151.217C151.697 229.056 152.009 227.688 152.009 226.392V214.44C152.009 213.264 151.817 212.544 151.217 211.608ZM167.802 219.84L175.242 216.432C174.474 214.32 172.794 212.76 170.514 212.76C168.33 212.76 166.794 214.2 166.794 216.408C166.794 217.608 167.178 218.808 167.802 219.84ZM177.666 216.216L168.186 220.416C169.506 222.264 171.642 223.56 173.85 223.56C175.602 223.56 177.258 222.792 178.65 221.232L178.722 221.28C177.378 223.656 174.618 225.264 171.834 225.264C167.922 225.264 164.994 222.312 164.994 218.4C164.994 214.32 167.874 211.296 171.69 211.296C174.762 211.296 177.09 213.312 177.666 216.216ZM188.516 216.192C188.516 213.936 187.532 212.352 186.164 212.352C184.82 212.352 183.932 213.792 183.932 215.904C183.932 218.376 184.7 219.648 186.164 219.648C187.604 219.648 188.516 218.376 188.516 216.192ZM184.964 224.04C183.884 224.472 183.02 225.456 183.02 226.368C183.02 227.496 184.172 228.12 186.164 228.12C188.588 228.12 190.124 227.184 190.124 225.696C190.124 224.472 188.948 224.088 187.124 224.088C186.308 224.088 185.588 224.064 184.964 224.04ZM192.764 211.224V214.344C192.764 214.344 191.564 214.32 190.364 213.768C190.94 214.536 191.3 215.448 191.3 216.384C191.3 218.64 189.068 220.512 186.284 220.512C185.78 220.512 185.324 220.464 184.868 220.368C184.364 220.536 183.644 220.896 183.644 221.52C183.644 222.192 184.796 222.36 186.044 222.36C187.028 222.36 188.108 222.264 188.732 222.24C190.868 222.168 192.38 223.488 192.38 225.432C192.38 228.072 189.5 230.088 185.732 230.088C182.852 230.088 180.956 228.936 180.956 227.136C180.956 225.384 183.092 224.328 183.908 223.992C182.228 223.848 181.484 223.512 181.484 222.624C181.484 221.352 183.308 220.488 184.148 220.152C182.324 219.504 181.1 218.016 181.1 216.144C181.1 213.552 183.236 211.488 185.9 211.488C186.86 211.488 187.796 211.752 188.612 212.232C189.188 212.4 189.692 212.472 190.148 212.472C191.156 212.472 191.948 212.088 192.764 211.224ZM196.267 221.736H200.011C200.011 224.328 198.403 227.328 196.099 228.96H194.251C196.075 227.28 196.987 224.112 196.267 221.736ZM219.966 205.8H228.75C227.862 206.952 227.55 208.272 227.55 210.84V219.96C227.55 222.528 227.862 223.848 228.75 225H219.942C223.278 224.232 224.742 222.432 224.742 219.96V213.12C222.846 215.952 218.358 216.84 218.358 220.896C218.358 216.84 213.87 215.952 211.974 213.12V219.96C211.974 222.432 213.438 224.232 216.774 225H207.966C208.854 223.848 209.166 222.528 209.166 219.96V210.84C209.166 208.272 208.854 206.952 207.966 205.8H216.75C214.182 205.8 211.974 207.888 211.974 210.336C211.974 214.512 218.358 215.952 218.358 218.448C218.358 215.952 224.742 214.512 224.742 210.336C224.742 207.888 222.534 205.8 219.966 205.8ZM235.881 213.408V220.8C235.881 222.912 236.721 224.04 238.257 224.04C239.937 224.04 241.257 222.864 241.257 220.92C241.257 216.744 237.129 216.048 236.097 214.2C235.977 213.936 235.881 213.672 235.881 213.408ZM235.881 206.784V211.44C235.881 211.584 236.001 214.152 238.017 214.152C239.457 214.152 240.537 212.832 240.537 210.816C240.537 208.488 238.521 206.784 235.881 206.784ZM239.529 215.568C241.713 216.36 244.041 217.056 244.041 219.96C244.041 223.416 240.681 224.952 237.441 224.976L235.881 225H231.896C232.785 223.824 233.097 222.504 233.097 219.96V210.84C233.097 208.296 232.785 206.952 231.896 205.8H235.881C238.881 205.776 243.177 206.568 243.177 210.84C243.177 214.128 240.849 215.232 239.529 215.568Z" fill="black"/>
<path d="M80.545 269.155L79.825 265H86.695C86.155 265.72 85.975 266.545 85.975 268.135V273.37C85.96 277.885 84.895 279.655 82.24 279.655C79.93 279.655 78.565 277.54 79.6 275.59L82.87 273.385C82.87 273.385 80.8 275.215 80.8 277.36C80.8 278.425 81.295 279.04 82.195 279.04C83.545 279.04 84.205 277.3 84.22 273.37V265.6C82.27 265.615 80.875 266.68 80.545 269.155ZM88.6165 268.6H91.9615C91.1665 268.885 90.8215 269.545 90.8215 270.745V274.285C90.8215 275.65 91.1815 276.235 92.0515 276.235C92.8465 276.235 93.5065 275.755 94.2265 274.66V270.745C94.2265 269.545 93.8815 268.885 93.0865 268.6H96.4165C96.1165 269.08 95.9215 269.95 95.9215 270.745V274.87C95.9215 275.635 96.1315 276.505 96.4165 277H94.2265V275.2C93.2965 276.565 92.3965 277.165 91.2565 277.165C89.9215 277.165 89.1115 276.1 89.1115 274.285V270.745C89.1115 269.95 88.9165 269.08 88.6165 268.6ZM100.808 277H98.1234C98.4234 276.52 98.6184 275.65 98.6184 274.855V267.49C98.6184 266.77 98.4234 266.05 98.1234 265.54L98.6184 265.345L100.823 264.595C100.538 265.075 100.313 266.065 100.313 266.86V274.855C100.313 275.65 100.508 276.52 100.808 277ZM102.863 270.01L102.878 270.04C102.878 270.025 102.863 270.025 102.863 270.01ZM105.128 277.12L105.113 277.15C105.113 277.135 105.113 277.135 105.128 277.12ZM106.313 279.985H103.073C104.003 279.295 104.648 278.41 105.113 277.15L105.128 277.12C105.113 277.135 105.113 277.135 105.113 277.15L104.078 279.985L105.713 275.515L102.773 269.83C102.473 269.305 102.038 268.72 101.843 268.6H104.888C104.348 268.9 104.333 269.425 104.693 270.19L103.883 268.6L106.418 273.595L107.768 269.935C107.918 269.335 107.753 268.915 107.243 268.6H110.333C110.108 268.72 109.778 269.32 109.493 270.04L110.018 268.6L106.418 278.35C106.133 279.325 106.103 279.85 106.313 279.985ZM122.762 273.76L122.492 275.725L122.297 277H115.307V276.325C119.492 272.125 120.662 270.22 120.662 267.535C120.662 266.14 119.972 265.27 118.847 265.27C117.617 265.27 116.837 266.335 116.837 268.06C116.837 269.665 117.572 270.715 117.572 270.715L115.397 268.615C115.397 266.335 116.807 264.835 118.982 264.835C121.082 264.835 122.552 266.215 122.552 268.18C122.552 270.445 121.097 272.455 116.882 275.725H119.777C121.112 275.71 122.327 274.915 122.762 273.76ZM128.476 275.56C129.541 275.56 130.261 274.57 130.261 273.145C130.261 271.855 129.511 270.94 128.461 270.94C127.396 270.94 126.631 271.87 126.631 273.175C126.631 274.54 127.426 275.56 128.476 275.56ZM127.666 266.725L127.516 266.98C127.576 266.89 127.621 266.8 127.666 266.725ZM129.766 266.815L129.811 266.725C129.796 266.755 129.781 266.785 129.766 266.815ZM128.011 265H131.896C131.116 265.255 130.486 265.75 129.976 266.485L128.281 269.335H128.521C130.756 269.335 132.181 270.79 132.181 273.115C132.181 275.515 130.651 277.165 128.431 277.165C126.226 277.165 124.711 275.635 124.711 273.415C124.711 272.26 125.026 271.315 126.196 269.275L127.726 266.605C128.041 265.975 128.131 265.405 128.011 265ZM80.56 301.472L79.384 294.8H96.976L95.8 301.472C95.272 297.464 93.28 295.496 89.584 295.496V308.96C89.584 311.528 90.136 312.848 91.024 314H85.576C86.464 312.848 86.776 311.528 86.776 308.96V295.496C83.104 295.496 81.088 297.464 80.56 301.472ZM102.518 314.264C98.9661 314.264 96.1581 311.408 96.1581 307.592C96.1581 303.536 99.3501 300.296 103.094 300.296C106.622 300.296 109.454 303.152 109.454 306.92C109.454 310.976 106.262 314.264 102.518 314.264ZM104.15 312.704C106.118 312.704 107.654 311.096 107.654 309.032C107.654 305.72 104.342 301.808 101.51 301.808C99.4461 301.808 97.9821 303.464 97.9821 305.552C97.9821 308.816 101.294 312.704 104.15 312.704ZM112.851 310.544V303.368C112.851 302.24 112.659 301.52 112.059 300.536H115.587V303.992C116.691 301.928 118.443 300.296 119.715 300.296C120.195 300.296 120.411 300.68 120.411 300.68L119.811 304.832C119.811 304.832 119.859 302.648 118.371 302.648C117.459 302.648 116.163 303.704 115.587 304.808V310.544C115.587 311.864 115.899 313.232 116.379 314H112.059C112.539 313.232 112.851 311.864 112.851 310.544ZM128.229 314.264C124.677 314.264 121.869 311.408 121.869 307.592C121.869 303.536 125.061 300.296 128.805 300.296C132.333 300.296 135.165 303.152 135.165 306.92C135.165 310.976 131.973 314.264 128.229 314.264ZM129.861 312.704C131.829 312.704 133.365 311.096 133.365 309.032C133.365 305.72 130.053 301.808 127.221 301.808C125.157 301.808 123.693 303.464 123.693 305.552C123.693 308.816 127.005 312.704 129.861 312.704ZM150.226 314H144.898C146.17 313.544 146.722 312.488 146.722 310.568V304.904C146.722 302.72 146.122 301.784 144.73 301.784C143.482 301.784 142.426 302.552 141.25 304.304V310.568C141.25 312.488 141.802 313.544 143.074 314H137.746C138.226 313.232 138.538 311.84 138.538 310.568V304.784C138.538 303.632 138.25 302.48 137.746 301.664L138.538 301.352L141.25 300.368V303.44C142.738 301.256 144.202 300.296 146.002 300.296C148.162 300.296 149.434 302 149.434 304.904V310.568C149.434 311.84 149.746 313.232 150.226 314ZM156.797 301.448V310.232C156.797 312.536 157.157 313.496 158.189 313.496C158.861 313.496 159.653 312.728 160.253 311.456C160.253 311.456 159.989 314.312 157.205 314.312C155.141 314.312 154.085 312.8 154.085 309.872V301.448H152.573C152.573 301.448 155.717 300.872 156.797 297.464V300.824H160.253V301.448H156.797ZM168.799 314.264C165.247 314.264 162.439 311.408 162.439 307.592C162.439 303.536 165.631 300.296 169.375 300.296C172.903 300.296 175.735 303.152 175.735 306.92C175.735 310.976 172.543 314.264 168.799 314.264ZM170.431 312.704C172.399 312.704 173.935 311.096 173.935 309.032C173.935 305.72 170.623 301.808 167.791 301.808C165.727 301.808 164.263 303.464 164.263 305.552C164.263 308.816 167.575 312.704 170.431 312.704ZM179.228 310.736H182.972C182.972 313.328 181.364 316.328 179.06 317.96H177.212C179.036 316.28 179.948 313.112 179.228 310.736ZM200.335 314.264C195.223 314.264 190.543 309.512 190.543 304.424C190.543 298.76 194.719 294.536 200.311 294.536C205.375 294.536 210.079 299.264 210.079 304.4C210.079 310.016 205.951 314.264 200.335 314.264ZM198.127 296.072C195.247 296.072 192.871 298.4 192.847 301.712C192.799 307.232 197.287 312.728 202.351 312.728C205.567 312.728 207.799 310.184 207.799 306.92C207.799 301.448 203.215 296.072 198.127 296.072ZM223.786 294.8H231.034C230.146 295.952 229.834 297.272 229.834 299.84V308.96C229.834 311.528 230.146 312.848 231.034 314H223.786C225.754 313.76 227.05 312.584 227.05 311.048C227.05 308.768 224.242 306.848 221.938 304.88C220.114 303.344 217.978 301.88 216.826 300.2V309.44C216.826 311.696 218.002 313.352 220.09 314H212.842C213.73 312.848 214.042 311.528 214.042 308.96V299.84C214.042 297.272 213.73 295.952 212.842 294.8H220.09C218.122 295.04 216.826 296.216 216.826 297.752C216.826 299.984 219.562 301.928 221.818 303.824C223.69 305.408 225.874 306.872 227.05 308.576V299.36C227.05 297.104 225.874 295.448 223.786 294.8Z" fill="black"/>
<path d="M80.545 352.155L79.825 348H86.695C86.155 348.72 85.975 349.545 85.975 351.135V356.37C85.96 360.885 84.895 362.655 82.24 362.655C79.93 362.655 78.565 360.54 79.6 358.59L82.87 356.385C82.87 356.385 80.8 358.215 80.8 360.36C80.8 361.425 81.295 362.04 82.195 362.04C83.545 362.04 84.205 360.3 84.22 356.37V348.6C82.27 348.615 80.875 349.68 80.545 352.155ZM88.6165 351.6H91.9615C91.1665 351.885 90.8215 352.545 90.8215 353.745V357.285C90.8215 358.65 91.1815 359.235 92.0515 359.235C92.8465 359.235 93.5065 358.755 94.2265 357.66V353.745C94.2265 352.545 93.8815 351.885 93.0865 351.6H96.4165C96.1165 352.08 95.9215 352.95 95.9215 353.745V357.87C95.9215 358.635 96.1315 359.505 96.4165 360H94.2265V358.2C93.2965 359.565 92.3965 360.165 91.2565 360.165C89.9215 360.165 89.1115 359.1 89.1115 357.285V353.745C89.1115 352.95 88.9165 352.08 88.6165 351.6ZM100.808 360H98.1234C98.4234 359.52 98.6184 358.65 98.6184 357.855V350.49C98.6184 349.77 98.4234 349.05 98.1234 348.54L98.6184 348.345L100.823 347.595C100.538 348.075 100.313 349.065 100.313 349.86V357.855C100.313 358.65 100.508 359.52 100.808 360ZM102.863 353.01L102.878 353.04C102.878 353.025 102.863 353.025 102.863 353.01ZM105.128 360.12L105.113 360.15C105.113 360.135 105.113 360.135 105.128 360.12ZM106.313 362.985H103.073C104.003 362.295 104.648 361.41 105.113 360.15L105.128 360.12C105.113 360.135 105.113 360.135 105.113 360.15L104.078 362.985L105.713 358.515L102.773 352.83C102.473 352.305 102.038 351.72 101.843 351.6H104.888C104.348 351.9 104.333 352.425 104.693 353.19L103.883 351.6L106.418 356.595L107.768 352.935C107.918 352.335 107.753 351.915 107.243 351.6H110.333C110.108 351.72 109.778 352.32 109.493 353.04L110.018 351.6L106.418 361.35C106.133 362.325 106.103 362.85 106.313 362.985ZM122.762 356.76L122.492 358.725L122.297 360H115.307V359.325C119.492 355.125 120.662 353.22 120.662 350.535C120.662 349.14 119.972 348.27 118.847 348.27C117.617 348.27 116.837 349.335 116.837 351.06C116.837 352.665 117.572 353.715 117.572 353.715L115.397 351.615C115.397 349.335 116.807 347.835 118.982 347.835C121.082 347.835 122.552 349.215 122.552 351.18C122.552 353.445 121.097 355.455 116.882 358.725H119.777C121.112 358.71 122.327 357.915 122.762 356.76ZM128.191 358.71C129.166 358.71 129.826 357.9 129.826 356.73C129.826 355.545 129.091 354.585 128.191 354.585C127.261 354.585 126.556 355.485 126.556 356.67C126.556 357.84 127.246 358.71 128.191 358.71ZM128.191 349.44C127.306 349.44 126.676 350.22 126.676 351.255C126.676 352.23 127.306 352.905 128.206 352.905C129.046 352.905 129.661 352.2 129.661 351.225C129.661 350.235 129.031 349.44 128.191 349.44ZM129.871 353.7V353.715C130.861 354.195 131.671 355.53 131.671 356.67C131.671 358.575 130.096 360.15 128.206 360.15C126.136 360.15 124.711 358.71 124.711 356.655C124.711 355.515 125.431 354.255 126.406 353.715V353.7C125.581 353.16 125.131 352.29 125.131 351.21C125.131 349.41 126.481 348 128.191 348C129.931 348 131.221 349.335 131.221 351.12C131.221 352.14 130.681 353.16 129.871 353.7ZM92.56 377.8H101.344C100.456 378.952 100.144 380.272 100.144 382.84V391.96C100.144 394.528 100.456 395.848 101.344 397H92.536C95.872 396.232 97.336 394.432 97.336 391.96V385.12C95.44 387.952 90.952 388.84 90.952 392.896C90.952 388.84 86.464 387.952 84.568 385.12V391.96C84.568 394.432 86.032 396.232 89.368 397H80.56C81.448 395.848 81.76 394.528 81.76 391.96V382.84C81.76 380.272 81.448 378.952 80.56 377.8H89.344C86.776 377.8 84.568 379.888 84.568 382.336C84.568 386.512 90.952 387.952 90.952 390.448C90.952 387.952 97.336 386.512 97.336 382.336C97.336 379.888 95.128 377.8 92.56 377.8ZM110.346 397.264C106.794 397.264 103.986 394.408 103.986 390.592C103.986 386.536 107.178 383.296 110.922 383.296C114.45 383.296 117.282 386.152 117.282 389.92C117.282 393.976 114.09 397.264 110.346 397.264ZM111.978 395.704C113.946 395.704 115.482 394.096 115.482 392.032C115.482 388.72 112.17 384.808 109.338 384.808C107.274 384.808 105.81 386.464 105.81 388.552C105.81 391.816 109.122 395.704 111.978 395.704ZM132.343 397H127.015C128.287 396.544 128.839 395.488 128.839 393.568V387.904C128.839 385.72 128.239 384.784 126.847 384.784C125.599 384.784 124.543 385.552 123.367 387.304V393.568C123.367 395.488 123.919 396.544 125.191 397H119.863C120.343 396.232 120.655 394.84 120.655 393.568V387.784C120.655 386.632 120.367 385.48 119.863 384.664L120.655 384.352L123.367 383.368V386.44C124.855 384.256 126.319 383.296 128.119 383.296C130.279 383.296 131.551 385 131.551 387.904V393.568C131.551 394.84 131.863 396.232 132.343 397ZM138.914 384.448V393.232C138.914 395.536 139.274 396.496 140.306 396.496C140.978 396.496 141.77 395.728 142.37 394.456C142.37 394.456 142.106 397.312 139.322 397.312C137.258 397.312 136.202 395.8 136.202 392.872V384.448H134.69C134.69 384.448 137.834 383.872 138.914 380.464V383.824H142.37V384.448H138.914ZM145.781 393.544V386.368C145.781 385.24 145.589 384.52 144.989 383.536H148.517V386.992C149.621 384.928 151.373 383.296 152.645 383.296C153.125 383.296 153.341 383.68 153.341 383.68L152.741 387.832C152.741 387.832 152.789 385.648 151.301 385.648C150.389 385.648 149.093 386.704 148.517 387.808V393.544C148.517 394.864 148.829 396.232 149.309 397H144.989C145.469 396.232 145.781 394.864 145.781 393.544ZM157.607 391.84L165.047 388.432C164.279 386.32 162.599 384.76 160.319 384.76C158.135 384.76 156.599 386.2 156.599 388.408C156.599 389.608 156.983 390.808 157.607 391.84ZM167.471 388.216L157.991 392.416C159.311 394.264 161.447 395.56 163.655 395.56C165.407 395.56 167.063 394.792 168.455 393.232L168.527 393.28C167.183 395.656 164.423 397.264 161.639 397.264C157.727 397.264 154.799 394.312 154.799 390.4C154.799 386.32 157.679 383.296 161.495 383.296C164.567 383.296 166.895 385.312 167.471 388.216ZM180.745 397H176.809V395.68C176.089 396.736 175.177 397.264 174.001 397.264C172.129 397.264 170.713 395.704 170.713 393.664C170.713 391.12 173.425 389.944 175.225 388.816C176.377 388.072 176.857 387.544 176.857 386.824C176.857 385.96 176.209 385.432 175.201 385.432C173.809 385.432 172.537 386.488 171.625 388.336L172.345 384.28C173.161 383.752 174.793 383.296 175.993 383.296C178.153 383.296 179.521 384.304 179.521 385.936C179.521 387.208 178.801 387.904 176.329 389.152C173.977 390.376 173.065 391.528 173.065 393.232C173.065 394.888 173.953 396.088 175.105 396.088C176.041 396.088 176.737 395.224 176.809 394.336V390.04C178.105 389.632 179.185 389.008 179.521 388.456V393.592C179.521 394.864 180.097 396.472 180.745 397ZM188.026 397H183.73C184.21 396.232 184.522 394.84 184.522 393.568V381.784C184.522 380.632 184.21 379.48 183.73 378.664L184.522 378.352L188.05 377.152C187.594 377.92 187.234 379.504 187.234 380.776V393.568C187.234 394.84 187.546 396.232 188.026 397ZM191.697 393.736H195.441C195.441 396.328 193.833 399.328 191.529 400.96H189.681C191.505 399.28 192.417 396.112 191.697 393.736ZM210.956 379.072C207.956 379.072 205.484 381.472 205.46 384.88C205.436 390.448 209.972 395.92 215.084 395.92C218.42 395.92 220.7 393.328 220.7 389.968C220.7 384.424 216.092 379.072 210.956 379.072ZM225.092 402.136C221.9 402.136 219.836 398.656 217.94 396.28C216.524 397.048 214.892 397.456 213.116 397.456C207.956 397.456 203.228 392.656 203.228 387.52C203.228 381.808 207.452 377.536 213.092 377.536C218.18 377.536 222.932 382.312 222.932 387.496C222.932 391.024 221.324 394 218.78 395.752C221.756 398.968 223.628 400.072 225.764 400.072C228.476 400.072 228.884 398.032 228.884 398.032C229.364 399.952 227.612 402.136 225.092 402.136ZM239.854 378.688L239.038 383.968C238.246 381.232 235.342 379.072 232.534 379.072C229.438 379.072 227.23 381.424 227.23 384.712C227.23 390.4 231.694 395.464 236.782 395.464C238.246 395.464 239.758 394.984 241.102 394.216C241.102 394.216 240.07 397.216 235.51 397.264C229.654 397.336 224.926 392.752 224.926 387.016C224.926 381.496 229.03 377.536 234.862 377.536C237.934 377.536 239.854 378.688 239.854 378.688Z" fill="black"/>
<rect x="16" y="14" width="28" height="395" rx="14" fill="#AAAD83"/>
<circle cx="29.5" cy="29.5" r="29.5" fill="#76728B"/>
<circle cx="30" cy="123" r="21" fill="#76728B"/>
<circle cx="29" cy="213" r="21" fill="#76728B"/>
<circle cx="30" cy="305" r="21" fill="#76728B"/>
<circle cx="31.5" cy="396.5" r="29.5" fill="#76728B"/>
</svg>
