<svg width="798" height="382" viewBox="0 0 798 382" fill="none" xmlns="http://www.w3.org/2000/svg">
<path d="M14.4423 190.632C14.4421 185.548 14.1863 183.575 12.9126 180.635C11.1314 176.451 7.08125 171.518 3.19642 168.878L3.19013 168.873L2.3321 168.302C1.42432 167.697 0.878975 166.678 0.878975 165.588L0.878974 162.901L0.878974 162.89L0.844245 160.271C0.829719 159.176 1.36573 158.147 2.27125 157.531L3.51496 156.686L3.52192 156.681C7.1598 154.152 10.2346 150.412 12.7015 145.447L12.7054 145.439C13.4506 143.898 13.9023 142.779 14.152 141.317C14.3963 139.887 14.4423 138.156 14.4423 135.404C14.4423 130.384 14.1882 128.347 12.9743 125.578C11.13 121.221 7.40235 116.647 3.45521 113.947C3.45447 113.946 3.4538 113.946 3.45307 113.945L2.21619 113.086C1.33863 112.477 0.815312 111.476 0.815312 110.408L0.815312 107.729L0.815312 105.166C0.815312 104.073 1.36298 103.053 2.27399 102.448L3.30951 101.762C3.31061 101.761 3.31165 101.76 3.31275 101.76C5.19709 100.535 7.29664 98.4428 9.10718 96.1663C10.9189 93.8882 12.5021 91.349 13.3074 89.1909C14.188 86.8534 14.5059 84.1213 14.5059 79.8765C14.5059 77.2669 14.444 75.6062 14.1729 74.1991C13.897 72.7678 13.4116 71.6346 12.6384 70.0722L12.6381 70.0716C10.2388 65.2333 6.7807 60.9488 3.25495 58.5912L3.25379 58.5904C2.58142 58.1425 2.10352 57.814 1.75006 57.5266C1.40161 57.2432 1.21582 57.0325 1.10102 56.837C0.868105 56.4402 0.81531 55.9405 0.81531 54.5179C0.81531 53.3939 1.72656 52.4826 2.85059 52.4826L3.62958 52.4826L3.63623 52.4826C11.0484 52.422 20.0303 49.9434 27.6443 45.7911L27.6486 45.7888C30.4735 44.2264 33.8905 41.5009 36.9886 38.5216C40.0865 35.5427 42.9284 32.2495 44.5722 29.5207L44.5752 29.5158C48.9758 22.0919 50.6047 16.5563 50.9924 7.63706L50.9925 7.63577L51.1473 3.94006C51.2205 2.19357 52.6576 0.815332 54.4056 0.815332L396.393 0.815317L740.713 0.815302C741.01 0.815302 741.233 1.08824 741.173 1.37943L741.971 1.54408L741.167 1.40799C741.117 1.7079 741.083 1.97848 741.073 2.21287C741.064 2.4303 741.071 2.68971 741.149 2.92789C741.235 3.18853 741.473 3.57381 741.974 3.63874C742.319 3.68349 742.604 3.53808 742.762 3.43825L792.356 173.003C787.243 179.009 784.543 185.104 784.369 191.205C784.195 197.312 786.556 203.304 791.329 209.089L791.331 209.091C793.204 211.34 794.58 213.16 795.499 214.754C796.416 216.342 796.853 217.662 796.898 218.918C796.989 221.439 795.516 224.006 792.088 228.249L792.084 228.255C789.087 232.03 787.222 234.723 786.123 237.454C785.016 240.209 784.711 242.942 784.711 246.756C784.711 250.539 785.016 253.285 786.081 255.992C787.14 258.683 788.928 261.273 791.77 264.788L791.771 264.789C794.343 267.958 795.806 270.209 796.457 272.098C797.084 273.921 796.965 275.437 796.235 277.208L796.229 277.221L796.224 277.235C795.973 277.911 795.383 278.943 794.602 280.098C793.831 281.239 792.911 282.446 792.04 283.461L792.036 283.465C788.161 288.043 786.628 290.698 785.315 295.351L785.314 295.354C783.07 303.417 785.129 311.945 790.887 318.841L790.889 318.844C792.037 320.204 792.957 321.551 793.586 322.738C794.228 323.951 794.518 324.905 794.518 325.504C794.518 326.071 794.211 326.757 793.681 327.321C793.146 327.889 792.519 328.193 792.022 328.193C791.607 328.193 791.176 328.259 790.844 328.445C790.682 328.535 790.437 328.714 790.323 329.034C790.31 329.069 790.3 329.103 790.292 329.137C790.137 329.203 789.926 329.281 789.658 329.369C788.858 329.632 787.694 329.937 786.369 330.231C783.627 330.84 778.352 332.642 774.621 334.322C771.687 335.631 769.801 336.561 768.003 337.784C766.208 339.004 764.527 340.5 761.98 342.905C759.527 345.193 757.914 346.8 756.601 348.446C755.281 350.1 754.283 351.769 753.031 354.163C749.799 360.192 748.5 364.38 747.406 371.525L747.405 371.532L747.404 371.54C747.25 372.689 746.987 373.945 746.693 375.027C746.391 376.138 746.08 376.975 745.858 377.344L745.844 377.367L745.832 377.39C745.423 378.181 745.146 378.537 744.55 378.889C743.873 379.289 742.797 379.672 740.716 380.349C740.705 380.35 740.692 380.35 740.676 380.351C740.589 380.356 740.459 380.36 740.285 380.365C739.938 380.375 739.432 380.384 738.771 380.394C737.449 380.413 735.516 380.431 733.013 380.448C728.006 380.482 720.721 380.513 711.481 380.542C693 380.598 666.697 380.642 635.151 380.675C572.059 380.74 487.993 380.758 403.573 380.736C234.708 380.691 64.4869 380.483 57.7945 380.158L54.226 379.987C52.4874 379.904 51.1206 378.47 51.1206 376.73L51.1206 374.855C51.1206 371.661 50.6709 367.147 50.1464 364.762L50.1461 364.761C45.6013 344.294 26.1582 328.92 3.98115 328.074L3.98476 328.075L3.94801 328.889M14.4423 190.632C14.4423 190.63 14.4422 190.628 14.4422 190.626L13.627 190.635L14.4423 190.635C14.4423 190.634 14.4423 190.633 14.4423 190.632ZM14.4423 190.632C14.4738 193.596 14.4789 195.3 14.1621 196.801C13.8402 198.326 13.1935 199.612 12.0553 201.765M12.0553 201.765C10.1555 205.37 8.49519 207.407 4.99024 210.434M12.0553 201.765L11.3394 201.386L12.0558 201.764C12.0556 201.764 12.0555 201.765 12.0553 201.765ZM4.99024 210.434L1.94154 213.074C1.22627 213.694 0.815317 214.593 0.815317 215.539L0.815317 217.953L0.815317 220.364C0.815317 221.311 1.22737 222.212 1.94435 222.831L4.86311 225.353L4.33003 225.97M4.99024 210.434L4.45741 209.817M4.99024 210.434L4.9911 210.433L4.45741 209.817M4.33003 225.97L4.86335 225.354C12.0319 231.553 15.2909 238.683 14.6309 247.116M4.33003 225.97C11.3346 232.028 14.4548 238.917 13.818 247.053M4.33003 225.97L1.41126 223.448C0.515085 222.674 9.68417e-06 221.548 9.6324e-06 220.364L9.52702e-06 217.953L9.42152e-06 215.539C9.36982e-06 214.357 0.513742 213.232 1.40779 212.458L4.45741 209.817M14.6309 247.116C14.0388 255.258 9.89912 262.493 3.19502 267.029L3.19014 267.032L2.3321 267.604C1.42433 268.209 0.878979 269.227 0.878979 270.318L0.87904 272.946L0.878918 272.957L0.843884 275.567C0.829541 276.64 1.34309 277.65 2.21754 278.271L3.39454 279.106L2.92915 279.775M14.6309 247.116C14.631 247.115 14.6311 247.113 14.6312 247.112L13.818 247.053M14.6309 247.116L13.818 247.053M2.92915 279.775L3.40101 279.111L3.39979 279.11C7.03401 281.638 10.2995 285.614 12.6403 290.404M2.92915 279.775C6.43147 282.21 9.61531 286.071 11.9077 290.762M2.92915 279.775L1.74568 278.936C0.652661 278.16 0.0107543 276.897 0.0286986 275.557L0.0636716 272.946M12.6403 290.404C13.4162 291.972 13.885 293.107 14.1434 294.578C14.3964 296.017 14.4423 297.75 14.4423 300.502C14.4423 305.521 14.1881 307.559 12.9741 310.328M12.6403 290.404C12.6397 290.403 12.6391 290.402 12.6384 290.401L11.9077 290.762M12.6403 290.404L11.9077 290.762M12.9741 310.328C11.1302 314.685 7.40388 319.257 3.45766 321.957M12.9741 310.328C12.9751 310.326 12.9761 310.324 12.977 310.321L12.2261 310.004M12.9741 310.328C12.9736 310.329 12.9732 310.33 12.9727 310.331L12.2261 310.004M3.45766 321.957C2.01228 322.968 1.42659 323.436 1.13533 323.897C0.88069 324.301 0.815322 324.763 0.815322 326.039C0.815322 327.098 1.64851 327.969 2.7065 328.017L3.97902 328.074L3.94801 328.889M3.45766 321.957C3.45845 321.957 3.45936 321.956 3.46016 321.956L2.99281 321.287M3.45766 321.957C3.45613 321.958 3.4546 321.959 3.45308 321.96L2.99281 321.287M3.94801 328.889L2.66975 328.831C1.17622 328.764 1.43169e-05 327.534 1.42516e-05 326.039C1.41426e-05 323.544 0.190993 323.247 2.99281 321.287M3.94801 328.889C25.7894 329.721 44.8927 344.864 49.3501 364.937L2.99281 321.287M2.99281 321.287C6.81349 318.674 10.4431 314.22 12.2261 310.004M2.99281 321.287L12.2261 310.004M3.05646 156.012C6.55878 153.577 9.55164 149.954 11.9714 145.084C13.436 142.055 13.627 140.927 13.627 135.404C13.627 130.415 13.3723 128.515 12.2261 125.902C10.4431 121.685 6.81348 117.231 2.9928 114.618L1.7511 113.756C0.65418 112.994 4.88445e-06 111.743 4.82607e-06 110.408L4.709e-06 107.729L4.59696e-06 105.166C4.53723e-06 103.8 0.684636 102.524 1.82337 101.769L2.86542 101.078C6.4314 98.7618 11.0162 93.0012 12.5444 88.9034C13.3723 86.7061 13.6906 84.093 13.6906 79.8765C13.6906 74.6504 13.436 73.522 11.9077 70.4338C9.55164 65.6828 6.1767 61.5257 2.80176 59.269C0.127322 57.4873 2.50247e-06 57.2498 2.38305e-06 54.5179C2.31424e-06 52.9436 1.27625 51.6673 2.85059 51.6673L3.62958 51.6673C10.8888 51.6079 19.74 49.173 27.254 45.0753C32.7302 42.0465 40.6899 34.3855 43.8738 29.1C48.2039 21.7953 49.7958 16.391 50.1779 7.60166L3.05646 156.012ZM3.05646 156.012L1.81275 156.857C0.680915 157.627 0.0108712 158.913 0.0289987 160.282L0.0636668 162.901L0.0636669 165.588C0.063667 166.951 0.745369 168.224 1.88007 168.98L2.73811 169.552M3.05646 156.012L2.73811 169.552M2.73811 169.552C6.49506 172.106 10.4431 176.916 12.1624 180.954L2.73811 169.552ZM0.0636716 272.946L0.0636715 270.318C0.0636714 268.955 0.745373 267.681 1.88008 266.925L2.73811 266.354C9.23323 261.959 13.2449 254.951 13.818 247.053M0.0636716 272.946L4.45741 209.817M0.0636716 272.946L11.9077 290.762M12.2261 310.004C13.3723 307.391 13.627 305.49 13.627 300.502C13.627 294.979 13.436 293.85 11.9077 290.762M12.2261 310.004L11.9077 290.762" fill="#6D5C55" stroke="#F1EDDD" stroke-width="1.6306"/>
<rect x="88.8675" y="339.98" width="297.177" height="626.15" rx="45.9311" transform="rotate(-90 88.8675 339.98)" stroke="#F1EDDD" stroke-width="1.6306"/>
<path d="M168.399 305.219C168.399 309.289 166.746 312.385 163.442 314.507C160.102 316.629 155.441 317.69 149.458 317.69C143.44 317.69 138.796 316.611 135.526 314.454C132.256 312.263 130.621 309.15 130.621 305.114C130.621 301.044 132.273 297.948 135.578 295.826C138.883 293.705 143.544 292.644 149.562 292.644C155.58 292.644 160.224 293.739 163.494 295.931C166.764 298.088 168.399 301.184 168.399 305.219ZM164.12 305.167C164.12 303.601 163.668 302.262 162.763 301.149C161.824 300.001 160.293 299.131 158.171 298.54C156.05 297.914 153.197 297.601 149.614 297.601C144.814 297.601 141.161 298.279 138.656 299.636C136.152 300.957 134.9 302.801 134.9 305.167C134.9 306.732 135.369 308.089 136.308 309.237C137.213 310.35 138.726 311.219 140.848 311.845C142.935 312.437 145.788 312.733 149.405 312.733C154.206 312.733 157.858 312.072 160.363 310.75C162.868 309.393 164.12 307.532 164.12 305.167ZM167.772 279.358C163.772 279.358 160.224 279.097 157.128 278.576C153.997 278.019 151.179 277.236 148.675 276.228C146.17 275.184 143.857 273.897 141.735 272.366C139.613 270.836 137.543 269.079 135.526 267.096L135.526 284.681L131.247 284.681L131.247 261.513L135.004 261.513C137.335 263.913 139.613 265.913 141.839 267.514C144.031 269.114 146.362 270.401 148.831 271.375C151.266 272.349 154.032 273.045 157.128 273.462C160.189 273.879 163.737 274.088 167.772 274.088L167.772 279.358ZM167.772 253.654C167.146 253.759 166.503 253.811 165.842 253.811C163.581 253.811 161.563 253.428 159.789 252.663C157.98 251.863 156.345 250.837 154.884 249.584C153.388 248.332 152.014 247.01 150.762 245.619C149.475 244.192 148.257 242.871 147.11 241.653C145.927 240.401 144.744 239.375 143.561 238.575C142.379 237.774 141.144 237.374 139.857 237.374C138.396 237.374 137.195 237.914 136.256 238.992C135.282 240.07 134.795 241.462 134.795 243.166C134.795 244.627 135.091 245.967 135.682 247.184C136.239 248.367 137.004 249.48 137.978 250.524L134.795 253.133C133.543 251.741 132.534 250.21 131.769 248.541C131.004 246.836 130.621 244.871 130.621 242.645C130.621 240.592 131.021 238.801 131.821 237.27C132.586 235.739 133.647 234.557 135.004 233.722C136.361 232.852 137.874 232.417 139.544 232.417C141.213 232.417 142.761 232.783 144.187 233.513C145.614 234.244 146.953 235.183 148.205 236.331C149.458 237.479 150.675 238.714 151.858 240.036C153.006 241.357 154.188 242.627 155.406 243.845C156.624 245.062 157.893 246.106 159.215 246.975C160.537 247.81 161.963 248.332 163.494 248.541L163.494 232.47L167.772 232.47L167.772 253.654ZM167.772 219.445L163.598 219.445L163.598 211.984L137.248 211.984L142.518 218.976L139.022 221.532L131.247 210.731L131.247 207.287L163.598 207.287L163.598 201.078L167.772 201.078L167.772 219.445ZM167.772 191.08C167.146 191.184 166.503 191.237 165.842 191.237C163.581 191.237 161.563 190.854 159.789 190.089C157.98 189.289 156.345 188.262 154.884 187.01C153.388 185.758 152.014 184.436 150.762 183.044C149.475 181.618 148.257 180.296 147.11 179.079C145.927 177.827 144.744 176.8 143.561 176C142.379 175.2 141.144 174.8 139.857 174.8C138.396 174.8 137.195 175.339 136.256 176.418C135.282 177.496 134.795 178.888 134.795 180.592C134.795 182.053 135.091 183.392 135.682 184.61C136.239 185.793 137.004 186.906 137.978 187.949L134.795 190.558C133.543 189.167 132.534 187.636 131.769 185.967C131.004 184.262 130.621 182.297 130.621 180.07C130.621 178.018 131.021 176.226 131.821 174.696C132.586 173.165 133.647 171.983 135.004 171.148C136.361 170.278 137.874 169.843 139.544 169.843C141.213 169.843 142.761 170.208 144.187 170.939C145.614 171.669 146.953 172.609 148.205 173.757C149.458 174.905 150.675 176.139 151.858 177.461C153.006 178.783 154.188 180.053 155.406 181.27C156.624 182.488 157.893 183.531 159.215 184.401C160.537 185.236 161.963 185.758 163.494 185.967L163.494 169.895L167.772 169.895L167.772 191.08ZM168.399 148.783C168.399 152.853 166.746 155.949 163.442 158.071C160.102 160.193 155.441 161.254 149.458 161.254C143.44 161.254 138.796 160.176 135.526 158.019C132.256 155.827 130.621 152.714 130.621 148.679C130.621 144.609 132.273 141.513 135.578 139.391C138.883 137.269 143.544 136.208 149.562 136.208C155.58 136.208 160.224 137.304 163.494 139.495C166.764 141.652 168.399 144.748 168.399 148.783ZM164.12 148.731C164.12 147.166 163.668 145.826 162.763 144.713C161.824 143.565 160.293 142.696 158.171 142.104C156.05 141.478 153.197 141.165 149.614 141.165C144.814 141.165 141.161 141.843 138.656 143.2C136.152 144.522 134.9 146.366 134.9 148.731C134.9 150.296 135.369 151.653 136.308 152.801C137.213 153.914 138.726 154.784 140.848 155.41C142.935 156.001 145.788 156.297 149.405 156.297C154.206 156.297 157.858 155.636 160.363 154.314C162.868 152.957 164.12 151.096 164.12 148.731ZM167.772 128.506C167.146 128.61 166.503 128.662 165.842 128.662C163.581 128.662 161.563 128.28 159.789 127.514C157.98 126.714 156.345 125.688 154.884 124.436C153.388 123.184 152.014 121.862 150.762 120.47C149.475 119.044 148.257 117.722 147.11 116.505C145.927 115.252 144.744 114.226 143.561 113.426C142.379 112.626 141.144 112.226 139.857 112.226C138.396 112.226 137.195 112.765 136.256 113.843C135.282 114.922 134.795 116.313 134.795 118.018C134.795 119.479 135.091 120.818 135.682 122.036C136.239 123.218 137.004 124.332 137.978 125.375L134.795 127.984C133.543 126.593 132.534 125.062 131.769 123.392C131.004 121.688 130.621 119.722 130.621 117.496C130.621 115.444 131.021 113.652 131.821 112.122C132.586 110.591 133.647 109.408 135.004 108.573C136.361 107.704 137.874 107.269 139.544 107.269C141.213 107.269 142.761 107.634 144.187 108.365C145.614 109.095 146.953 110.034 148.205 111.182C149.458 112.33 150.675 113.565 151.858 114.887C153.006 116.209 154.188 117.479 155.406 118.696C156.624 119.914 157.893 120.957 159.215 121.827C160.537 122.662 161.963 123.184 163.494 123.392L163.494 107.321L167.772 107.321L167.772 128.506ZM167.772 82.8694L159.998 82.8694L159.998 98.471L156.241 98.471L130.882 87.5656L132.604 83.4956L155.719 93.3575L155.719 82.8694L145.335 82.8694L145.335 78.1733L155.719 78.1733L155.719 73.8425L159.998 73.8425L159.998 78.1733L167.772 78.1733L167.772 82.8694Z" fill="#F1EDDD"/>
<path d="M192.411 340.795L192.411 41.58" stroke="#F1EDDD" stroke-width="1.6306" stroke-dasharray="3.85 9.78"/>
<path d="M225.659 123.287L219.955 90.9255H305.283L299.579 123.287C297.018 103.847 287.356 94.3014 269.429 94.3014V159.606C269.429 172.062 272.106 178.465 276.413 184.052H249.989C254.296 178.465 255.809 172.062 255.809 159.606V94.3014C237.999 94.3014 228.22 103.847 225.659 123.287ZM313.928 160.887L314.161 160.421C314.044 160.538 313.928 160.771 313.928 160.887ZM346.289 139.002L334.416 108.503L317.536 151.574C320.097 149.595 323.939 148.664 334.765 147.034C343.496 145.637 347.221 143.076 346.289 139.002ZM348.617 112.461L368.291 160.538C375.042 176.136 379.116 183.005 382.26 184.052H340.469C354.089 182.539 359.443 174.041 355.02 161.353L348.617 145.055C347.803 147.733 342.797 149.945 335.347 150.992C322.542 152.738 317.42 154.95 314.161 160.305L313.695 161.702C309.388 173.692 315.092 182.539 328.362 184.052H286.572C289.598 183.005 293.789 176.136 300.541 160.538L320.097 112.461C323.24 104.662 327.082 94.185 325.801 90.9255H343.03C341.633 94.185 345.474 104.662 348.617 112.461ZM391.632 90.9255H425.74C414.681 94.4178 411.072 100.005 411.072 113.043V145.405C413.517 141.563 419.221 136.325 427.137 131.319C435.518 126.081 441.106 119.795 444.365 111.53C447.625 101.868 443.667 93.7193 435.053 90.9255L447.625 91.0419H465.668C461.71 93.3701 458.101 101.635 456.704 105.826C456.821 105.477 456.937 105.127 457.054 104.895C457.17 104.429 457.403 103.847 457.636 103.148C453.911 114.091 445.296 124.8 431.677 133.182C441.571 137.838 454.493 160.189 461.594 173.575C465.202 179.862 467.763 182.655 470.557 183.936L466.832 184.052H436.682C445.413 182.539 442.037 171.015 437.148 161.353C436.449 160.189 435.751 159.024 435.285 157.977C430.978 150.061 424.459 142.494 420.734 140.516C413.517 146.22 411.189 151.341 411.072 159.606C411.072 179.629 426.904 184.052 426.904 184.052H391.632C395.939 178.465 397.453 172.062 397.453 159.606V115.371C397.453 102.916 395.939 96.5131 391.632 90.9255ZM499.402 95.5819V134.812C509.879 134.812 517.329 129.69 521.054 118.514V155.765C517.329 144.357 509.879 139.468 499.402 139.468V179.396C521.17 179.28 532.345 170.782 538.981 144.59L534.092 184.052H480.078C484.385 178.465 485.898 172.062 485.898 159.606V115.371C485.898 102.916 484.385 96.5131 480.078 90.9255H536.536L530.832 123.287C528.387 103.847 517.329 95.5819 499.402 95.5819ZM600.97 160.887L601.203 160.421C601.086 160.538 600.97 160.771 600.97 160.887ZM633.331 139.002L621.458 108.503L604.579 151.574C607.14 149.595 610.981 148.664 621.807 147.034C630.538 145.637 634.263 143.076 633.331 139.002ZM635.66 112.461L655.333 160.538C662.084 176.136 666.159 183.005 669.302 184.052H627.511C641.131 182.539 646.486 174.041 642.062 161.353L635.66 145.055C634.845 147.733 629.839 149.945 622.389 150.992C609.584 152.738 604.462 154.95 601.203 160.305L600.737 161.702C596.43 173.692 602.134 182.539 615.405 184.052H573.614C576.641 183.005 580.831 176.136 587.583 160.538L607.14 112.461C610.283 104.662 614.124 94.185 612.844 90.9255H630.072C628.675 94.185 632.517 104.662 635.66 112.461ZM225.659 239.287L219.955 206.926H305.283L299.579 239.287C297.018 219.847 287.356 210.301 269.429 210.301V275.606C269.429 288.062 272.106 294.465 276.413 300.052H249.989C254.296 294.465 255.809 288.062 255.809 275.606V210.301C237.999 210.301 228.22 219.847 225.659 239.287ZM339.931 300.052H314.787C319.094 294.465 320.608 288.062 320.608 275.606V231.371C320.608 218.916 319.094 212.513 314.787 206.926H339.931C335.624 212.513 334.111 218.916 334.111 231.371V275.606C334.111 288.062 335.624 294.465 339.931 300.052ZM425.571 211.233L421.613 236.842C417.771 223.572 403.686 213.095 390.066 213.095C375.049 213.095 364.34 224.503 364.34 240.451C364.34 268.04 385.992 292.602 410.67 292.602C417.771 292.602 425.105 290.274 431.624 286.549C431.624 286.549 426.618 301.1 404.501 301.333C376.097 301.682 353.165 279.448 353.165 251.626C353.165 224.852 373.071 205.645 401.358 205.645C416.258 205.645 425.571 211.233 425.571 211.233ZM443.016 206.926H477.123C466.064 210.418 462.456 216.005 462.456 229.043V261.405C464.9 257.563 470.604 252.325 478.52 247.319C486.902 242.081 492.489 235.795 495.749 227.53C499.008 217.868 495.05 209.719 486.436 206.926L499.008 207.042H517.051C513.093 209.37 509.485 217.635 508.088 221.826C508.204 221.477 508.321 221.127 508.437 220.895C508.553 220.429 508.786 219.847 509.019 219.148C505.294 230.091 496.68 240.8 483.06 249.182C492.955 253.838 505.876 276.189 512.977 289.575C516.586 295.862 519.147 298.655 521.94 299.936L518.215 300.052H488.066C496.796 298.539 493.42 287.015 488.531 277.353C487.833 276.189 487.134 275.024 486.669 273.977C482.362 266.061 475.843 258.494 472.118 256.516C464.9 262.22 462.572 267.341 462.456 275.606C462.456 295.629 478.287 300.052 478.287 300.052H443.016C447.323 294.465 448.836 288.062 448.836 275.606V231.371C448.836 218.916 447.323 212.513 443.016 206.926ZM550.785 211.582V250.812C561.262 250.812 568.712 245.69 572.437 234.514V271.765C568.712 260.357 561.262 255.468 550.785 255.468V295.396C572.554 295.28 583.729 286.782 590.364 260.59L585.475 300.052H531.461C535.769 294.465 537.282 288.062 537.282 275.606V231.371C537.282 218.916 535.769 212.513 531.461 206.926H587.919L582.215 239.287C579.771 219.847 568.712 211.582 550.785 211.582ZM601.599 239.287L595.895 206.926H681.223L675.519 239.287C672.958 219.847 663.296 210.301 645.369 210.301V275.606C645.369 288.062 648.046 294.465 652.353 300.052H625.929C630.236 294.465 631.749 288.062 631.749 275.606V210.301C613.939 210.301 604.16 219.847 601.599 239.287Z" fill="white"/>
</svg>
